<svg xmlns="http://www.w3.org/2000/svg" xmlns:xlink="http://www.w3.org/1999/xlink" width="378" height="361" viewBox="0 0 378 361" fill="none">
<g >
<path fill-rule="evenodd"  fill="rgba(92, 137, 22, 1)"  d="M52.3771,86.3636l-18.0089,-34.6029l-5.7886,34.6029h-23.79696l12.73796,-76.72723h19.6764l17.8204,34.60783l5.6819,-34.60783h23.8021l-0.3864,2.32753l-12.3515,74.3997zM56.5542,47.2286l-0.354,2.1564l-0.0525,0.3195h-0.5682l-0.0524,-0.1019l-1.0535,-2.0459l-18.4963,-35.9203h-16.7614l-12.07385,72.7272h19.74435l5.9472,-35.5514l0.4042,-2.4159l0.0406,-0.2429h0.4261l0.0407,0.0781l1.1714,2.2508l18.6743,35.8813h16.4773l11.7418,-70.7272l0.332,-2h-19.7443zM120.65,37.2473l17.788,-27.61093h26.951l-36.889,52.63513l-4.04,24.0921h-23.659l4.138,-24.6744l-19.2784,-52.05283h26.3614zM121.427,39.734l-0.754,1.1699l-0.179,0.2779h-0.71l-0.179,-0.5729l-0.366,-1.1714l-8.688,-27.8011h-22.0169l0.7407,2l17.7252,47.8579l-3.5,20.8693l-0.335,2h19.602l3.835,-22.8693l33.542,-47.8579l1.401,-2h-22.017zM224.953,58.5551c-0.956,5.88847 -3.19867,10.98947 -6.728,15.303c-3.50867,4.28833 -7.95767,7.59173 -13.347,9.9102c-5.342,2.2984 -11.26333,3.4476 -17.764,3.4476c-6.592,0 -12.196,-1.16663 -16.812,-3.4999c-4.73467,-2.3932 -8.17667,-5.81097 -10.326,-10.2533c-2.13667,-4.41533 -2.72133,-9.60067 -1.754,-15.556l8.02,-48.27033h23.8l-7.845,47.21413c-0.42667,2.7548 0.08033,5.0021 1.521,6.7419c1.42333,1.71873 3.50233,2.5781 6.237,2.5781c2.914,0 5.46167,-0.93937 7.643,-2.8181c2.18467,-1.88107 3.49967,-4.2597 3.945,-7.1359l7.739,-46.58013h23.799zM167.938,11.6364l-7.742,46.5909c-0.89933,5.53973 -0.37267,10.32783 1.58,14.3643c1.95333,4.03647 5.09633,7.14963 9.429,9.3395c4.332,2.18987 9.635,3.2848 15.909,3.2848c6.226,0 11.884,-1.09493 16.974,-3.2848c5.09,-2.18987 9.28633,-5.30303 12.589,-9.3395c3.30267,-4.03647 5.40367,-8.82457 6.303,-14.3643l7.409,-44.5909l0.333,-2h-19.745l-7.457,44.8863c-0.52067,3.36173 -2.05967,6.14347 -4.617,8.3452c-2.55667,2.20173 -5.53933,3.3026 -8.948,3.3026c-3.362,0 -5.95433,-1.10087 -7.777,-3.3026c-1.82333,-2.20173 -2.47467,-4.98347 -1.954,-8.3452l7.126,-42.8863l0.332,-2h-2.028zM52.9517,115.83c-4.44427,0 -8.24093,1.569 -11.39,4.707c-3.23513,3.22467 -5.3385,7.77367 -6.3101,13.647c-0.99147,5.94867 -0.6458,10.51133 1.037,13.688c1.51827,2.86533 4.42113,4.298 8.7086,4.298c4.03087,0 7.21183,-0.81467 9.5429,-2.444c1.51453,-1.05867 2.6226,-2.367 3.3242,-3.925h-12.8016l2.9192,-18.062h36.2971l-2.0093,12.405c-1.14347,6.96 -3.60943,12.92167 -7.3979,17.885c-3.78473,4.95933 -8.48833,8.757 -14.1108,11.393c-5.59567,2.624 -11.72623,3.936 -18.3917,3.936c-7.43447,0 -13.73963,-1.60333 -18.9155,-4.81c-5.24127,-3.24667 -8.9773,-7.86567 -11.2081,-13.857c-2.19488,-5.89533 -2.63641,-12.85267 -1.3246,-20.872c1.03313,-6.24733 2.9155,-11.79367 5.6471,-16.639c2.73333,-4.84867 6.08517,-8.954 10.0555,-12.316c3.97147,-3.36353 8.35493,-5.90873 13.1504,-7.6356c4.78813,-1.72427 9.74883,-2.5864 14.8821,-2.5864c6.04473,0 11.34473,1.142 15.9,3.426c4.61687,2.31467 8.16127,5.51267 10.6332,9.594c2.48927,4.11 3.56687,8.812 3.2328,14.106l-0.1183,1.874h-23.7063l-0.1244,-1.867c-0.12907,-1.936 -0.7619,-3.403 -1.8985,-4.401c-1.1732,-1.02933 -3.04753,-1.544 -5.623,-1.544zM58.5134,143.801h2.0377c-0.125,0.698 -0.30107,1.36467 -0.5282,2c-0.8048,2.25067 -2.2504,4.10533 -4.3368,5.564c-2.6752,1.87 -6.23817,2.805 -10.6889,2.805c-5.09,0 -8.58197,-1.78733 -10.4759,-5.362c-1.89393,-3.57467 -2.30823,-8.558 -1.2429,-14.95c1.04167,-6.29733 3.33217,-11.20967 6.8715,-14.737c3.53927,-3.52733 7.80653,-5.291 12.8018,-5.291c3.07767,0 5.39183,0.68033 6.9425,2.041c1.55067,1.36133 2.40883,3.285 2.5745,5.771h19.9574c0.3078,-4.87667 -0.67467,-9.19133 -2.9474,-12.944c-2.27273,-3.752 -5.5457,-6.6994 -9.8189,-8.8422c-4.2732,-2.14253 -9.2744,-3.2138 -15.0036,-3.2138c-4.90053,0 -9.63537,0.8227 -14.2045,2.4681c-4.56913,1.64527 -8.74763,4.0719 -12.5355,7.2799c-3.78787,3.208 -6.9898,7.132 -9.6058,11.772c-2.616,4.64 -4.42117,9.96667 -5.4155,15.98c-1.25473,7.67067 -0.84637,14.28767 1.2251,19.851c2.07153,5.56333 5.5339,9.84833 10.3871,12.855c4.8532,3.00667 10.80727,4.51 17.8622,4.51c6.3684,0 12.21593,-1.249 17.5426,-3.747c5.32673,-2.49733 9.78343,-6.09567 13.3701,-10.795c3.5866,-4.69933 5.92443,-10.36333 7.0135,-16.992l1.3095,-8.085l0.324,-2h-32.2443l-1.9495,12.062l-0.3233,2zM82.3395,172.364l12.7379,-76.7276h23.6566l-0.386,2.3275l-12.352,74.4001zM210.491,95.6364l-3.762,22.9296c0.80267,-0.72467 1.67267,-1.41267 2.61,-2.064c3.25467,-2.26267 7.115,-3.394 11.581,-3.394c3.99667,0 7.62367,1.068 10.881,3.204c3.31267,2.17267 5.72233,5.53933 7.229,10.1c1.46467,4.43133 1.62567,10.09967 0.483,17.005c-1.08667,6.568 -3.02933,12.039 -5.828,16.413c-2.83,4.42133 -6.18833,7.73167 -10.075,9.931c-3.904,2.20867 -7.973,3.313 -12.207,3.313c-4.308,0 -7.776,-1.06633 -10.404,-3.199c-0.986,-0.8 -1.83867,-1.67767 -2.558,-2.633l-0.813,5.122h-23.527l0.386,-2.328l12.352,-74.3996zM206.165,122.002c-0.892,1.04333 -1.65533,2.15433 -2.29,3.333h-0.284l0.023,-0.14l0.261,-1.591l0.404,-2.464l3.529,-21.5036l0.328,-2h-19.602l-11.742,70.7276l-0.332,2h19.46l0.926,-5.831l0.473,-2.982l0.022,-0.136h0.568c0.00733,0.03067 0.01467,0.06167 0.022,0.093c0.23,0.96533 0.55933,1.87333 0.988,2.724c0.782,1.554 1.89533,2.91733 3.34,4.09c2.26133,1.83467 5.30933,2.752 9.144,2.752c3.88267,0 7.62333,-1.018 11.222,-3.054c3.59867,-2.036 6.72367,-5.12567 9.375,-9.269c2.65133,-4.14267 4.498,-9.36267 5.54,-15.66c1.08867,-6.58133 0.95233,-11.93167 -0.409,-16.051c-1.36133,-4.11933 -3.50367,-7.138 -6.427,-9.056c-2.924,-1.91733 -6.18533,-2.876 -9.784,-2.876c-4.048,0 -7.528,1.012 -10.44,3.036c-1.67267,1.16267 -3.111,2.44867 -4.315,3.858zM297.964,172.364l12.738,-76.7276h23.657l-0.386,2.3275l-12.352,74.4001zM114.348,97.6364h-17.5753l-11.7418,70.7276l-0.332,2h19.6021l11.742,-70.7276l0.332,-2zM329.973,97.6364h-17.575l-11.742,70.7276l-0.332,2h19.602l11.742,-70.7276l0.332,-2zM115.845,158.637c-1.65867,-4.55467 -1.99767,-9.798 -1.017,-15.73c0.972,-5.884 3.01167,-11.06233 6.119,-15.535c3.12667,-4.50067 7.14733,-8.00467 12.062,-10.512c4.902,-2.50133 10.48433,-3.752 16.747,-3.752c6.27267,0 11.48133,1.277 15.626,3.831c4.21667,2.59733 7.18,6.226 8.89,10.886c1.67133,4.55533 2.01667,9.8 1.036,15.734c-0.97267,5.886 -3.02533,11.06633 -6.158,15.541c-3.14933,4.49667 -7.174,7.99833 -12.074,10.505c-4.89067,2.502 -10.45567,3.753 -16.695,3.753c-6.29667,0 -11.51733,-1.277 -15.662,-3.831c-4.21867,-2.59867 -7.17667,-6.22867 -8.874,-10.89zM239.262,154.97c0.72533,-4.35267 2.30567,-7.89233 4.741,-10.619c2.39667,-2.68333 5.35867,-4.68633 8.886,-6.009c3.398,-1.27467 7.086,-2.061 11.064,-2.359c4.45933,-0.34333 7.63933,-0.817 9.54,-1.421c1.20467,-0.38333 1.906,-0.92733 2.104,-1.632v-0.073l0.022,-0.148c0.098,-0.656 -0.029,-1.123 -0.381,-1.401c-0.59533,-0.47067 -1.51367,-0.706 -2.755,-0.706c-1.47667,0 -2.725,0.307 -3.745,0.921c-0.89133,0.53667 -1.51233,1.407 -1.863,2.611l-0.42,1.44h-22.049l0.559,-2.446c0.82933,-3.628 2.52533,-6.968 5.088,-10.02c2.55867,-3.04667 5.94167,-5.479 10.149,-7.297c4.17133,-1.802 9.11733,-2.703 14.838,-2.703c5.44867,0 10.056,0.85233 13.822,2.557c3.88867,1.76067 6.73333,4.17267 8.534,7.236c1.83267,3.118 2.42433,6.59733 1.775,10.438l-6.529,39.025h-22.378l0.649,-3.896c-1.28667,1.06267 -2.66533,1.92867 -4.136,2.598c-3.15133,1.43333 -6.647,2.15 -10.487,2.15c-5.69733,0 -10.18033,-1.47367 -13.449,-4.421c-3.43333,-3.09533 -4.62633,-7.70367 -3.579,-13.825zM277.597,133.148c-0.28467,1.562 -1.45067,2.66867 -3.498,3.32c-2.048,0.65133 -5.38033,1.15433 -9.997,1.509c-3.788,0.284 -7.29167,1.02967 -10.511,2.237c-3.22,1.208 -5.919,3.031 -8.097,5.469c-2.178,2.43867 -3.59833,5.64667 -4.261,9.624c-0.92333,5.39733 0.059,9.39833 2.947,12.003c2.88867,2.604 6.92533,3.906 12.11,3.906c3.55067,0 6.77033,-0.657 9.659,-1.971c2.02133,-0.91933 3.85733,-2.265 5.508,-4.037c0.70733,-0.76 1.38067,-1.59833 2.02,-2.515h0.426l-0.044,0.267l-0.289,1.733l-0.237,1.423l-0.375,2.248l-0.333,2h18.324l6.25,-37.358c0.568,-3.362 0.059,-6.39233 -1.527,-9.091c-1.586,-2.69933 -4.131,-4.842 -7.635,-6.428c-3.504,-1.586 -7.83633,-2.379 -12.997,-2.379c-5.44533,0 -10.127,0.84633 -14.045,2.539c-3.918,1.69267 -7.05467,3.94167 -9.41,6.747c-1.87467,2.232 -3.24333,4.62533 -4.106,7.18c-0.22133,0.656 -0.40933,1.32267 -0.564,2h18.04c0.49667,-1.70467 1.414,-2.95933 2.752,-3.764c1.33733,-0.80533 2.92933,-1.208 4.776,-1.208c1.70467,0 3.03633,0.379 3.995,1.137c0.95867,0.75733 1.33167,1.84633 1.119,3.267zM125.768,167.825c3.82333,2.35533 8.69433,3.533 14.613,3.533c5.91867,0 11.18,-1.17767 15.784,-3.533c4.60467,-2.356 8.38667,-5.647 11.346,-9.873c2.95933,-4.22533 4.90067,-9.13167 5.824,-14.719c0.92333,-5.58733 0.60967,-10.494 -0.941,-14.72c-1.55067,-4.22533 -4.23767,-7.516 -8.061,-9.872c-3.82333,-2.35533 -8.68233,-3.533 -14.577,-3.533c-5.94267,0 -11.222,1.17767 -15.838,3.533c-4.61667,2.356 -8.393,5.64667 -11.329,9.872c-2.93533,4.226 -4.86467,9.13267 -5.788,14.72c-0.92333,5.58733 -0.61567,10.49367 0.923,14.719c1.53933,4.226 4.22067,7.517 8.044,9.873zM149.418,153.194c-1.882,2.45 -4.08967,3.675 -6.623,3.675c-2.58,0 -4.397,-1.225 -5.451,-3.675c-1.05333,-2.45067 -1.22467,-5.81833 -0.514,-10.103c0.686,-4.28533 1.97033,-7.653 3.853,-10.103c1.882,-2.45067 4.10133,-3.676 6.658,-3.676c2.55667,0 4.36167,1.22533 5.415,3.676c1.054,2.45 1.23767,5.81767 0.551,10.103c-0.71067,4.28467 -2.007,7.65233 -3.889,10.103zM200.945,152.537c-1.148,-2.32 -1.40233,-5.46867 -0.763,-9.446c0.63933,-4.04867 1.92367,-7.215 3.853,-9.499c1.92933,-2.28467 4.24333,-3.427 6.942,-3.427c2.69933,0 4.59933,1.14233 5.7,3.427c1.10067,2.284 1.33133,5.45033 0.692,9.499c-0.63867,4.048 -1.89933,7.21433 -3.782,9.499c-1.882,2.28467 -4.17233,3.427 -6.871,3.427c-2.69867,0 -4.62233,-1.16 -5.771,-3.48zM151.334,142.764c0.624,-3.896 0.48567,-6.89133 -0.415,-8.986c-0.70667,-1.644 -1.89933,-2.466 -3.578,-2.466c-1.9,0 -3.59067,0.96467 -5.072,2.894c-1.67667,2.18267 -2.83167,5.24967 -3.465,9.201c-0.64733,3.90667 -0.52133,6.90567 0.378,8.997c0.70667,1.64333 1.911,2.465 3.613,2.465c1.87667,0 3.55567,-0.96433 5.037,-2.893c1.67867,-2.186 2.846,-5.25667 3.502,-9.212zM206.716,154.017c2.07,0 3.846,-0.89967 5.328,-2.699c1.65067,-2.00333 2.76733,-4.84967 3.35,-8.539c0.574,-3.63667 0.401,-6.40967 -0.519,-8.319c-0.73733,-1.53 -2.03667,-2.295 -3.898,-2.295c-2.07933,0 -3.884,0.90567 -5.414,2.717c-1.68933,2 -2.82467,4.84033 -3.406,8.521l-0.001,0.005c-0.57133,3.55667 -0.37733,6.304 0.582,8.242c0.78067,1.578 2.10667,2.367 3.978,2.367zM271.79,147.601c0.53733,-0.11933 1.05067,-0.24767 1.54,-0.385c0.772,-0.21667 1.484,-0.45533 2.136,-0.716l-0.353,2.259l-0.357,2.286c-0.42667,2.486 -1.64,4.40967 -3.64,5.771c-2.00067,1.36133 -4.102,2.042 -6.304,2.042c-1.704,0 -3.012,-0.40833 -3.924,-1.225c-0.91133,-0.81667 -1.26033,-1.971 -1.047,-3.463c0.21333,-1.42 0.93533,-2.633 2.166,-3.639c1.23133,-1.00667 3.01867,-1.68733 5.362,-2.042c1.56267,-0.28467 3.03633,-0.58067 4.421,-0.888zM272.993,149.373c-0.25133,0.062 -0.50767,0.122 -0.769,0.18c-1.41,0.31333 -2.909,0.61433 -4.497,0.903l-0.029,0.006l-0.029,0.004c-1.98267,0.30067 -3.448,0.83833 -4.396,1.613c-0.83267,0.68067 -1.31733,1.47667 -1.454,2.388c-0.11133,0.77667 0.02333,1.33533 0.404,1.676c0.532,0.47667 1.395,0.715 2.589,0.715c1.79133,0 3.51767,-0.565 5.179,-1.695c1.532,-1.04267 2.463,-2.52767 2.793,-4.455zM298.562,248.181c-1.686,-3.478 -2.20033,-7.294 -1.543,-11.448c0.73267,-4.552 2.62633,-8.34233 5.681,-11.371c2.522,-2.5 5.606,-4.92433 9.252,-7.273c-0.90467,-1.86067 -1.65367,-3.891 -2.247,-6.091c-0.81,-3.00667 -0.91767,-6.22933 -0.323,-9.668c0.69333,-4.00733 2.27133,-7.66533 4.734,-10.974c2.454,-3.298 5.556,-5.929 9.306,-7.893c3.77067,-1.97533 7.93867,-2.963 12.504,-2.963c4.47867,0 8.22367,0.942 11.235,2.826c3.05,1.908 5.23067,4.457 6.542,7.647c1.29533,3.15067 1.61333,6.59733 0.954,10.34c-0.59133,3.706 -2.05367,7.15067 -4.387,10.334c-2.29267,3.12933 -5.29867,5.86267 -9.018,8.2l-2.142,1.339l4.638,6.235c0.58933,-0.99667 1.12433,-2.04067 1.605,-3.132c0.85467,-1.93867 1.45767,-3.99567 1.809,-6.171l0.272,-1.68h19.518l-0.356,2.304c-0.75867,4.92133 -2.08733,9.636 -3.986,14.144c-1.70333,4.04267 -3.92833,7.67967 -6.675,10.911l10.813,14.567h-24.556l-2.65,-3.411c-2.86333,1.512 -5.786,2.61933 -8.768,3.322c-3.46533,0.81667 -6.81433,1.225 -10.047,1.225c-5.544,0 -10.18033,-1.003 -13.909,-3.009c-3.81267,-2.05067 -6.56467,-4.82067 -8.256,-8.31zM337.408,222.249l-1.198,-1.61l1.702,-1.063l2.276,-1.423c3.50333,-2.20133 6.32633,-4.764 8.469,-7.688c2.14267,-2.92333 3.48633,-6.08967 4.031,-9.499c0.59133,-3.362 0.313,-6.43967 -0.835,-9.233c-1.148,-2.79333 -3.06567,-5.03067 -5.753,-6.712c-2.68667,-1.68067 -6.078,-2.521 -10.174,-2.521c-4.23733,0 -8.096,0.91133 -11.576,2.734c-3.48067,1.82333 -6.35733,4.262 -8.63,7.316c-2.27267,3.054 -3.72867,6.42733 -4.368,10.12c-0.544,3.14867 -0.449,6.08433 0.285,8.807c0.73333,2.72267 1.71567,5.16133 2.947,7.316l-0.107,0.071c-4.16667,2.55667 -7.623,5.19633 -10.369,7.919c-2.746,2.722 -4.45033,6.14267 -5.113,10.262c-0.592,3.74067 -0.13633,7.16167 1.367,10.263c1.50333,3.10133 3.97133,5.57533 7.404,7.422c3.43267,1.84667 7.753,2.77 12.961,2.77c3.078,0 6.27433,-0.39067 9.589,-1.172c3.314,-0.78133 6.55733,-2.09533 9.73,-3.942h0.035l3.09,3.978h19.602l-1.485,-2l-7.926,-10.678c3.10133,-3.362 5.56967,-7.221 7.405,-11.577c1.576,-3.742 2.74567,-7.63233 3.509,-11.671c0.12533,-0.66267 0.24,-1.32933 0.344,-2h-15.483c-0.37933,2.34333 -1.03067,4.56267 -1.954,6.658c-0.628,1.42533 -1.344,2.777 -2.148,4.055c-0.37733,0.6 -0.774,1.18367 -1.19,1.751l-1.253,-1.685zM46.0625,200.835c-2.65153,0 -4.58503,0.40367 -5.8005,1.211c-1.07293,0.71267 -1.70233,1.60333 -1.8882,2.672l-0.0122,0.07l-0.0171,0.069c-0.1972,0.79467 0.0941,1.505 0.8739,2.131c1.1966,0.96133 3.28493,1.75833 6.265,2.391l5.7056,1.283c8.2092,1.808 13.92957,4.80967 17.1611,9.005c3.28993,4.272 4.42553,9.46433 3.4068,15.577c-1.30433,7.74867 -5.12943,13.70633 -11.4753,17.873c-6.19253,4.066 -14.10457,6.099 -23.7361,6.099c-6.57107,0 -12.17817,-0.995 -16.8213,-2.985c-4.8396,-2.074 -8.34525,-5.276 -10.51694,-9.606c-2.14706,-4.28133 -2.68841,-9.66567 -1.62406,-16.153l0.27501,-1.677h22.72019l-0.2877,2.254c-0.33913,2.65667 0.18013,4.62167 1.5578,5.895c1.49887,1.386 3.86943,2.079 7.1117,2.079c2.809,0 4.9556,-0.47067 6.4398,-1.412c1.3034,-0.826 2.04967,-1.83 2.2388,-3.012c0.14927,-0.85933 -0.1859,-1.60533 -1.0055,-2.238c-1.21847,-0.94133 -3.63417,-1.806 -7.2471,-2.594l-6.972,-1.566c-6.57187,-1.51067 -11.5697,-4.042 -14.9935,-7.594c-3.61173,-3.748 -4.90243,-8.792 -3.8721,-15.132c0.8198,-5.02133 2.89003,-9.41033 6.2107,-13.167c3.27293,-3.70267 7.42763,-6.57767 12.4641,-8.625c4.98813,-2.02733 10.5008,-3.041 16.538,-3.041c6.1834,0 11.3977,1.05167 15.6429,3.155c4.3714,2.16667 7.52683,5.229 9.4663,9.187c1.92873,3.936 2.45503,8.50667 1.5789,13.712l-0.2807,1.668h-22.7736l0.1982,-2.181c0.1562,-1.71867 -0.21737,-3.02567 -1.1207,-3.921c-0.9596,-0.95133 -2.763,-1.427 -5.4102,-1.427zM71.8281,258.364l12.7379,-76.728h22.943l-3.884,23.655c1.15,-1.11867 2.42467,-2.10533 3.824,-2.96c3.516,-2.14867 7.48567,-3.223 11.909,-3.223c4.248,0 7.82067,0.99267 10.718,2.978c2.92,2 4.98433,4.74667 6.193,8.24c1.17667,3.398 1.40567,7.253 0.687,11.565l-6.104,36.473h-23.656l5.502,-33.011c0.33867,-2.148 0.11667,-3.76933 -0.666,-4.864c-0.702,-0.98133 -1.95333,-1.472 -3.754,-1.472c-1.902,0 -3.51467,0.59767 -4.838,1.793c-1.35467,1.22267 -2.20833,2.95067 -2.561,5.184l-0.003,0.017l-5.392,32.353zM103.016,209.003c-0.73733,0.97867 -1.398,2.04033 -1.982,3.185h-0.568l0.044,-0.268l0.284,-1.732l0.326,-1.985l3.705,-22.567l0.328,-2h-18.8916l-11.7419,70.728l-0.332,2h19.6023l5.1136,-30.682c0.42613,-2.69867 1.49133,-4.81767 3.1956,-6.357c1.70467,-1.53867 3.76433,-2.308 6.179,-2.308c2.486,0 4.27933,0.76933 5.38,2.308c1.10133,1.53933 1.43867,3.65833 1.012,6.357l-4.78,28.682l-0.333,2h19.602l5.824,-34.802c0.66267,-3.97667 0.46133,-7.504 -0.604,-10.582c-1.06533,-3.07733 -2.87633,-5.492 -5.433,-7.244c-2.55667,-1.752 -5.75267,-2.628 -9.588,-2.628c-4.048,0 -7.67033,0.97667 -10.867,2.93c-2.14533,1.31067 -3.97033,2.96567 -5.475,4.965zM54.5852,204.558c0.05813,0.56467 0.05813,1.16667 0,1.806h18.8921c0.80493,-4.78267 0.33737,-8.94933 -1.4027,-12.5c-1.74007,-3.55133 -4.59283,-6.30967 -8.5583,-8.275c-3.9654,-1.96467 -8.8837,-2.947 -14.7549,-2.947c-5.77653,0 -11.03813,0.96467 -15.7848,2.894c-4.74673,1.92933 -8.653,4.62833 -11.7188,8.097c-3.0658,3.468 -4.9775,7.522 -5.7351,12.162c-0.92327,5.682 0.18943,10.15667 3.3381,13.424c3.14867,3.26667 7.8125,5.61033 13.9915,7.031l6.9602,1.562c3.90627,0.85267 6.58737,1.84133 8.0433,2.966c1.456,1.124 2.04193,2.503 1.7578,4.137c-0.28407,1.77533 -1.33163,3.237 -3.1427,4.385c-1.81107,1.14867 -4.31463,1.723 -7.5107,1.723c-3.7642,0 -6.58733,-0.87 -8.4694,-2.61c-1.48633,-1.37467 -2.2529,-3.24733 -2.2997,-5.618c-0.01247,-0.63133 0.0261,-1.298 0.1157,-2h-18.74998c-0.99432,6.06067 -0.51493,11.03833 1.43818,14.933c1.95313,3.89467 5.1255,6.783 9.5171,8.665c4.39153,1.882 9.736,2.823 16.0334,2.823c9.23293,0 16.77907,-1.92367 22.6384,-5.771c5.8594,-3.84667 9.3928,-9.35667 10.6002,-16.53c0.92327,-5.54 -0.0829,-10.21567 -3.0185,-14.027c-2.9356,-3.812 -8.27413,-6.57 -16.0156,-8.274l-5.6818,-1.279c-5.22647,-1.10933 -8.1239,-2.80067 -8.6923,-5.074c-0.1474,-0.58933 -0.13823,-1.218 0.0275,-1.886c0.28407,-1.63333 1.20143,-2.965 2.7521,-3.995c1.55067,-1.03 3.853,-1.545 6.907,-1.545c3.196,0 5.46873,0.669 6.8182,2.007c0.9814,0.97267 1.54957,2.21133 1.7045,3.716zM332.659,208.636l-3.302,1.847c-0.19667,-0.33533 -0.38167,-0.666 -0.555,-0.992c-0.138,-0.26 -0.26867,-0.51667 -0.392,-0.77c-0.35533,-0.73333 -0.64933,-1.44233 -0.882,-2.127c-0.41467,-1.21867 -0.55067,-2.43167 -0.408,-3.639c0.18933,-1.58667 0.87567,-2.812 2.059,-3.676c1.184,-0.864 2.581,-1.296 4.191,-1.296c1.87,0 3.154,0.44967 3.852,1.349c0.69867,0.9 0.92967,1.918 0.693,3.054c-0.166,0.85267 -0.62767,1.847 -1.385,2.983c-0.75733,1.13667 -2.04767,2.22567 -3.871,3.267zM140.277,244.637c-1.65867,-4.55467 -1.99767,-9.798 -1.017,-15.73c0.972,-5.884 3.01167,-11.06233 6.119,-15.535c3.12667,-4.50067 7.147,-8.00467 12.061,-10.512c4.902,-2.50133 10.48467,-3.752 16.748,-3.752c6.272,0 11.48067,1.277 15.626,3.831c4.21667,2.59733 7.18,6.226 8.89,10.886c1.67133,4.55533 2.01667,9.8 1.036,15.734c-0.97267,5.886 -3.02567,11.06633 -6.159,15.541c-3.14867,4.49667 -7.173,7.99833 -12.073,10.505c-4.89067,2.502 -10.456,3.753 -16.696,3.753c-6.296,0 -11.51667,-1.277 -15.662,-3.831c-4.218,-2.59867 -7.17567,-6.22867 -8.873,-10.89zM227.85,199.818l0.553,25.901l9.741,-25.901h22.318l1.331,25.737l8.986,-25.737h24.022l-24.394,58.546h-24.313l-2.366,-24.364l-10.408,24.364h-24.325l-0.153,-1.834l-4.726,-56.712zM228.518,231.096l-1.486,3.952l-0.004,0.009h-0.426l-0.003,-0.162l-0.089,-4.142l-0.618,-28.935h-19.602l0.166,2l4.379,52.546h21.165l11.326,-26.513l1.149,-2.691l0.025,-0.058h0.568l0.025,0.253l0.273,2.812l2.543,26.197h21.165l21.894,-52.546l0.833,-2h-19.602l-10.133,29.022l-1.365,3.91l-0.008,0.023h-0.426l-0.008,-0.152l-0.21,-4.07l-1.487,-28.733h-19.034zM334.866,204.26c0.60933,-0.914 0.97133,-1.66567 1.086,-2.255c0.11467,-0.55133 0.01167,-1.03333 -0.309,-1.446c-0.298,-0.384 -1.05567,-0.576 -2.273,-0.576c-1.17533,0 -2.17933,0.30367 -3.012,0.911c-0.71467,0.522 -1.13233,1.288 -1.253,2.298c-0.106,0.90533 -0.00033,1.825 0.317,2.759c0.19467,0.57467 0.44033,1.172 0.737,1.792l1.524,-0.852c1.53867,-0.87933 2.59967,-1.75633 3.183,-2.631zM150.2,253.825c3.82333,2.35533 8.694,3.533 14.612,3.533c5.91867,0 11.18033,-1.17767 15.785,-3.533c4.60467,-2.356 8.38667,-5.647 11.346,-9.873c2.95933,-4.22533 4.90067,-9.13167 5.824,-14.719c0.92333,-5.58733 0.60967,-10.494 -0.941,-14.72c-1.55067,-4.22533 -4.23767,-7.516 -8.061,-9.872c-3.82333,-2.35533 -8.68233,-3.533 -14.577,-3.533c-5.94267,0 -11.22233,1.17767 -15.839,3.533c-4.616,2.356 -8.392,5.64667 -11.328,9.872c-2.93533,4.226 -4.86467,9.13267 -5.788,14.72c-0.92333,5.58733 -0.61567,10.49367 0.923,14.719c1.53867,4.226 4.22,7.517 8.044,9.873zM173.85,239.194c-1.882,2.45 -4.08967,3.675 -6.623,3.675c-2.58,0 -4.397,-1.225 -5.451,-3.675c-1.05333,-2.45067 -1.225,-5.81833 -0.515,-10.103c0.68667,-4.28533 1.971,-7.653 3.853,-10.103c1.88267,-2.45067 4.10233,-3.676 6.659,-3.676c2.55667,0 4.36167,1.22533 5.415,3.676c1.05333,2.45 1.237,5.81767 0.551,10.103c-0.71067,4.28467 -2.007,7.65233 -3.889,10.103zM175.766,228.764c0.624,-3.896 0.48567,-6.89133 -0.415,-8.986c-0.70667,-1.644 -1.89933,-2.466 -3.578,-2.466c-1.9,0 -3.591,0.96467 -5.073,2.894c-1.676,2.18267 -2.83067,5.24967 -3.464,9.201c-0.64733,3.90667 -0.52133,6.90567 0.378,8.997c0.70667,1.64333 1.911,2.465 3.613,2.465c1.876,0 3.555,-0.96433 5.037,-2.893c1.67867,-2.186 2.846,-5.25667 3.502,-9.212zM329.846,239.222l1.286,1.659c-0.68,0.26 -1.35233,0.48067 -2.017,0.662c-1.51,0.41067 -2.98,0.616 -4.41,0.616c-2.39133,0 -4.19067,-0.574 -5.398,-1.722c-1.20733,-1.14867 -1.68067,-2.75267 -1.42,-4.812c0.26,-1.42067 0.79267,-2.61633 1.598,-3.587c0.384,-0.46333 0.79767,-0.89967 1.241,-1.309c0.094,-0.08667 0.18933,-0.172 0.286,-0.256c0.40267,-0.35133 0.82867,-0.68167 1.278,-0.991zM327.773,239.814l-5.815,-7.498c-0.332,0.31533 -0.64333,0.64833 -0.934,0.999c-0.57267,0.69067 -0.95933,1.56267 -1.16,2.616c-0.162,1.36333 0.11167,2.382 0.821,3.056c0.82133,0.78133 2.16133,1.172 4.02,1.172c0.99533,0 2.018,-0.115 3.068,-0.345zM82.8054,267.636l-3.3775,19.909h-21.8672l-9.375,56.819h-23.5143l9.375,-56.819h-21.8859l0.3961,-2.334l2.9814,-17.575zM55.8636,285.545h21.875l2.3596,-13.909l0.3393,-2h-63.2102l-2.3596,13.909l-0.3393,2h21.875l-0.33,2l-8.715,52.819l-0.33,2h19.4602zM134.47,344.364l12.738,-76.728h23.657l-0.386,2.328l-12.352,74.4zM164.016,344.364l12.738,-76.728h23.657l-0.387,2.328l-12.351,74.4zM166.478,269.636h-17.575l-11.741,70.728l-0.332,2h19.602l11.742,-70.728l0.332,-2zM196.024,269.636h-17.575l-11.742,70.728l-0.332,2h19.602l11.742,-70.728l0.332,-2zM76.619,314.899c0.997,-5.932 3.0685,-11.129 6.2145,-15.591c3.15893,-4.48067 7.15,-7.96767 11.9732,-10.461c4.82153,-2.49267 10.21163,-3.739 16.1703,-3.739c5.86933,0 10.80533,1.229 14.808,3.687c4.07667,2.504 6.958,6.063 8.644,10.677c1.64667,4.50667 1.96833,9.82067 0.965,15.942l-0.972,6.222h-35.492c-0.13407,1.682 0.2148,3.06633 1.0466,4.153c0.9136,1.194 2.49707,1.791 4.7504,1.791c1.674,0 3.199,-0.344 4.575,-1.032c1.28267,-0.642 2.25,-1.56067 2.902,-2.756l0.569,-1.042h21.871l-0.891,2.64c-2.066,6.12133 -5.886,10.989 -11.46,14.603c-5.516,3.57667 -12.271,5.365 -20.265,5.365c-9.35547,0 -16.32817,-2.72267 -20.9181,-8.168c-4.5886,-5.44467 -6.08557,-12.875 -4.4909,-22.291zM97.2344,319.636h35.4756l0.71,-4.545c0.94733,-5.77667 0.65733,-10.75433 -0.87,-14.933c-1.52667,-4.178 -4.13067,-7.39767 -7.812,-9.659c-3.68133,-2.26067 -8.26833,-3.391 -13.761,-3.391c-5.634,0 -10.71797,1.172 -15.2519,3.516c-4.5336,2.34333 -8.28597,5.622 -11.2571,9.836c-2.97107,4.214 -4.9301,9.13833 -5.8771,14.773c-1.49147,8.80667 -0.14203,15.696 4.0483,20.668c4.19033,4.97133 10.65327,7.457 19.3888,7.457c7.6,0 13.99233,-1.681 19.177,-5.043c4.56067,-2.95733 7.85733,-6.81233 9.89,-11.565c0.278,-0.65 0.53233,-1.31667 0.763,-2h-17.898c-0.852,1.56267 -2.10667,2.75833 -3.764,3.587c-1.65733,0.82867 -3.48033,1.243 -5.469,1.243c-2.912,0 -5.02483,-0.85833 -6.3385,-2.575c-1.31393,-1.71667 -1.75783,-3.88867 -1.3317,-6.516zM101.32,308.841h-2.0615c0.15973,-0.70867 0.37707,-1.37533 0.652,-2c0.66233,-1.50533 1.65817,-2.768 2.9875,-3.788c1.88267,-1.44467 4.00767,-2.167 6.375,-2.167c2.41467,0 4.29067,0.74 5.628,2.22c1.338,1.47933 1.82933,3.391 1.474,5.735zM113.418,304.447c-0.94067,-1.04067 -2.32233,-1.561 -4.145,-1.561c-1.91533,0 -3.63433,0.58433 -5.157,1.753c-0.80667,0.61933 -1.45967,1.35333 -1.959,2.202h12.296c-0.102,-0.94467 -0.447,-1.74267 -1.035,-2.394z">
</path>
</g>
<g >
<path     fill="#FFFFFF"  d="M75.142 6.63637L63.0682 79.3636L46.5909 79.3636L26.7045 41.1534L26.2784 41.1534L19.8864 79.3636L0.142045 79.3636L12.2159 6.63637L28.9773 6.63637L48.5795 44.7045L49.1477 44.7045L55.3977 6.63637L75.142 6.63637ZM81.5341 6.63637L103.551 6.63637L112.784 36.1818L113.494 36.1818L132.528 6.63637L154.545 6.63637L119.602 56.4943L115.767 79.3636L96.1648 79.3636L100 56.4943L81.5341 6.63637ZM203.977 6.63637L223.722 6.63637L215.98 53.2273Q214.631 61.5369 209.677 67.5916Q204.723 73.6463 197.088 76.9311Q189.453 80.2159 180.114 80.2159Q170.703 80.2159 164.205 76.9311Q157.706 73.6463 154.776 67.5916Q151.847 61.5369 153.196 53.2273L160.938 6.63637L180.682 6.63637L173.224 51.5227Q172.443 56.5653 175.178 59.8679Q177.912 63.1705 182.955 63.1705Q188.068 63.1705 191.903 59.8679Q195.739 56.5653 196.52 51.5227L203.977 6.63637ZM55.4687 116.642Q55.2202 112.913 52.8942 110.871Q50.5682 108.83 45.9517 108.83Q38.4588 108.83 33.1499 114.121Q27.8409 119.412 26.2784 128.858Q24.6804 138.446 27.5213 143.808Q30.3622 149.17 37.9972 149.17Q44.6733 149.17 48.6861 146.365Q52.6989 143.56 53.5511 138.801L40.4119 138.801L42.6847 124.739L74.929 124.739L73.2955 134.824Q71.6619 144.767 66.282 151.816Q60.902 158.865 52.9119 162.611Q44.9219 166.358 35.3693 166.358Q24.7869 166.358 17.5071 161.848Q10.2273 157.338 7.12003 148.993Q4.01278 140.648 5.89489 129.142Q7.38636 120.122 11.3104 113.162Q15.2344 106.202 20.9162 101.39Q26.598 96.5781 33.4517 94.1101Q40.3054 91.642 47.6562 91.642Q56.25 91.642 62.6598 94.8558Q69.0696 98.0696 72.4787 103.698Q75.8878 109.327 75.4261 116.642L55.4687 116.642ZM109.375 92.6364L97.3011 165.364L77.6989 165.364L89.7727 92.6364L109.375 92.6364ZM133.381 166.358Q124.503 166.358 118.768 162.825Q113.033 159.291 110.724 152.952Q108.416 146.614 109.801 138.233Q111.186 129.852 115.589 123.513Q119.993 117.175 126.918 113.641Q133.842 110.108 142.756 110.108Q151.598 110.108 157.333 113.641Q163.068 117.175 165.394 123.513Q167.72 129.852 166.335 138.233Q164.95 146.614 160.511 152.952Q156.072 159.291 149.165 162.825Q142.259 166.358 133.381 166.358ZM135.795 151.869Q139.595 151.869 142.418 148.194Q145.241 144.518 146.307 138.091Q147.337 131.663 145.756 127.988Q144.176 124.312 140.341 124.312Q136.506 124.312 133.683 127.988Q130.859 131.663 129.83 138.091Q128.764 144.518 130.344 148.194Q131.925 151.869 135.795 151.869ZM169.46 165.364L181.534 92.6364L201.136 92.6364L196.591 120.335L196.875 120.335Q199.112 116.18 203.48 113.144Q207.848 110.108 213.92 110.108Q219.318 110.108 223.704 112.984Q228.089 115.861 230.131 122.04Q232.173 128.219 230.54 138.091Q228.977 147.537 225 153.751Q221.023 159.966 215.625 163.02Q210.227 166.074 204.403 166.074Q198.651 166.074 195.259 163.322Q191.868 160.57 190.909 156.415L190.341 156.415L188.92 165.364L169.46 165.364ZM193.182 138.091Q192.223 144.057 193.945 147.537Q195.668 151.017 199.716 151.017Q203.764 151.017 206.587 147.59Q209.411 144.163 210.369 138.091Q211.328 132.018 209.677 128.592Q208.026 125.165 203.977 125.165Q199.929 125.165 197.035 128.592Q194.141 132.018 193.182 138.091ZM249.29 166.216Q241.513 166.216 237.18 162.31Q232.848 158.403 234.233 150.307Q235.227 144.341 238.494 140.683Q241.761 137.026 246.591 135.214Q251.42 133.403 257.102 132.977Q264.027 132.445 267.099 131.468Q270.17 130.491 270.597 128.148L270.597 128.006Q270.916 125.875 269.478 124.739Q268.04 123.602 265.483 123.602Q262.713 123.602 260.707 124.81Q258.7 126.017 257.955 128.574L239.915 128.574Q241.051 123.602 244.585 119.394Q248.118 115.186 253.995 112.647Q259.872 110.108 268.04 110.108Q275.781 110.108 281.037 112.487Q286.293 114.866 288.672 118.915Q291.051 122.963 290.199 128.006L283.949 165.364L265.625 165.364L266.903 157.693L266.477 157.693Q263.281 162.274 258.949 164.245Q254.616 166.216 249.29 166.216ZM257.812 153.858Q261.115 153.858 264.116 151.816Q267.116 149.774 267.756 146.045L268.466 141.5Q266.868 142.139 264.79 142.601Q262.713 143.062 260.369 143.489Q256.854 144.021 255.007 145.531Q253.161 147.04 252.841 149.17Q252.521 151.408 253.889 152.633Q255.256 153.858 257.812 153.858ZM325 92.6364L312.926 165.364L293.324 165.364L305.398 92.6364L325 92.6364ZM47.5852 201.364Q47.9048 197.848 45.8807 195.842Q43.8565 193.835 39.0625 193.835Q34.4815 193.835 32.1555 195.38Q29.8295 196.925 29.4034 199.375Q28.196 204.24 38.0682 206.335L43.75 207.614Q55.3622 210.17 59.7656 215.888Q64.169 221.605 62.7841 229.915Q60.973 240.675 52.1839 246.445Q43.3949 252.216 29.5455 252.216Q20.0994 252.216 13.5121 249.393Q6.92472 246.57 3.99503 240.728Q1.06534 234.886 2.55682 225.795L21.3068 225.795Q20.6676 230.803 23.4908 233.413Q26.3139 236.023 31.9602 236.023Q36.7543 236.023 39.4709 234.3Q42.1875 232.578 42.6136 229.915Q43.0398 227.464 40.8558 225.778Q38.6719 224.091 32.8125 222.812L25.8523 221.25Q16.5838 219.119 11.8608 214.219Q7.13778 209.318 8.52273 200.795Q9.65909 193.835 14.2578 188.633Q18.8565 183.43 25.9766 180.536Q33.0966 177.642 41.7614 177.642Q50.5682 177.642 56.5163 180.589Q62.4645 183.537 65.0746 188.864Q67.6847 194.19 66.4773 201.364L47.5852 201.364ZM91.9034 220.682L86.7898 251.364L67.1875 251.364L79.2614 178.636L98.1534 178.636L93.4659 207.188L94.0341 207.188Q96.6974 201.967 101.491 199.038Q106.286 196.108 112.358 196.108Q118.111 196.108 121.946 198.736Q125.781 201.364 127.379 205.98Q128.977 210.597 127.983 216.562L122.159 251.364L102.557 251.364L107.67 220.682Q108.31 216.634 106.658 214.325Q105.007 212.017 101.278 212.017Q97.6562 212.017 95.0994 214.325Q92.5426 216.634 91.9034 220.682ZM157.812 252.358Q148.935 252.358 143.2 248.825Q137.464 245.291 135.156 238.952Q132.848 232.614 134.233 224.233Q135.618 215.852 140.021 209.513Q144.425 203.175 151.349 199.641Q158.274 196.108 167.188 196.108Q176.03 196.108 181.765 199.641Q187.5 203.175 189.826 209.513Q192.152 215.852 190.767 224.233Q189.382 232.614 184.943 238.952Q180.504 245.291 173.597 248.825Q166.69 252.358 157.812 252.358ZM160.227 237.869Q164.027 237.869 166.85 234.194Q169.673 230.518 170.739 224.091Q171.768 217.663 170.188 213.988Q168.608 210.312 164.773 210.312Q160.938 210.312 158.114 213.988Q155.291 217.663 154.261 224.091Q153.196 230.518 154.776 234.194Q156.357 237.869 160.227 237.869ZM203.835 251.364L199.29 196.818L218.892 196.818L219.602 230.057L220.028 230.057L232.528 196.818L251.562 196.818L253.267 229.773L253.693 229.773L265.199 196.818L284.801 196.818L262.074 251.364L240.909 251.364L238.068 222.102L237.5 222.102L225 251.364L203.835 251.364ZM313.727 252.5Q305.915 252.5 300.766 249.73Q295.617 246.96 293.362 242.308Q291.107 237.656 291.995 232.045Q292.989 225.866 297.108 221.783Q301.227 217.699 307.477 213.864L307.584 213.793Q305.737 210.561 304.637 206.477Q303.536 202.393 304.352 197.67Q305.311 192.131 308.72 187.55Q312.129 182.969 317.35 180.234Q322.57 177.5 328.926 177.5Q335.07 177.5 339.1 180.021Q343.131 182.543 344.853 186.733Q346.575 190.923 345.688 195.966Q344.871 201.08 341.657 205.465Q338.443 209.851 333.188 213.153L329.21 215.639L336.845 225.902Q338.798 223.239 340.183 220.096Q341.568 216.953 342.137 213.438L357.62 213.438Q356.519 220.575 353.767 227.109Q351.014 233.643 346.362 238.686L355.773 251.364L336.171 251.364L333.081 247.386Q333.046 247.386 333.046 247.386Q328.287 250.156 323.316 251.328Q318.344 252.5 313.727 252.5ZM324.132 235.881L315.29 224.482Q313.692 225.582 312.485 227.038Q311.277 228.494 310.887 230.625Q310.496 233.714 312.307 235.437Q314.118 237.159 317.705 237.159Q320.794 237.159 324.132 235.881ZM322.357 205.483L325.659 203.636Q328.394 202.074 329.53 200.369Q330.666 198.665 330.915 197.386Q331.27 195.682 330.222 194.332Q329.175 192.983 326.37 192.983Q323.955 192.983 322.179 194.279Q320.404 195.575 320.12 197.955Q319.906 199.766 320.528 201.594Q321.149 203.423 322.357 205.483ZM7.52841 280.545L10.2273 264.636L73.4375 264.636L70.7386 280.545L48.8636 280.545L39.4886 337.364L20.0284 337.364L29.4034 280.545L7.52841 280.545ZM95.0284 338.358Q81.9247 338.358 75.6392 330.901Q69.3537 323.443 71.5909 310.233Q73.0114 301.781 77.468 295.46Q81.9247 289.139 88.7251 285.624Q95.5256 282.108 103.977 282.108Q112.216 282.108 117.738 285.499Q123.26 288.891 125.55 295.158Q127.841 301.426 126.42 310.091L125.71 314.636L90.2344 314.636L90.0568 315.489Q89.4176 319.43 91.3885 322.005Q93.3594 324.58 97.7273 324.58Q100.71 324.58 103.196 323.337Q105.682 322.094 106.96 319.75L124.858 319.75Q121.982 328.273 114.205 333.315Q106.428 338.358 95.0284 338.358ZM92.2585 303.841L109.375 303.841Q109.908 300.325 107.901 298.106Q105.895 295.886 102.273 295.886Q98.7216 295.886 95.8984 298.053Q93.0753 300.219 92.2585 303.841ZM161.506 264.636L149.432 337.364L129.83 337.364L141.903 264.636L161.506 264.636ZM191.051 264.636L178.977 337.364L159.375 337.364L171.449 264.636L191.051 264.636Z">
</path>
</g>
</svg>
