<svg xmlns="http://www.w3.org/2000/svg" xmlns:xlink="http://www.w3.org/1999/xlink" width="1375.870849609375" height="204.07421875" viewBox="0 0 1375.870849609375 204.07421875" fill="none">
<path d="M577.255 98.3316C573.922 118.253 567.295 134.981 557.374 148.516C547.444 162.063 535.378 172.289 521.179 179.192C507.005 186.084 491.85 189.53 475.713 189.53C458.455 189.53 443.445 185.76 430.684 178.221C417.829 170.626 408.466 159.521 402.596 144.905C396.761 130.38 395.575 112.713 399.036 91.9023C402.25 71.9865 408.816 55.202 418.736 41.5487C428.666 27.8832 440.789 17.5391 455.105 10.5163C469.397 3.50544 484.671 0 500.929 0C518.074 0 533.014 3.8008 545.748 11.4024C558.573 19.0585 567.905 30.2531 573.744 44.9862C579.545 59.6247 580.716 77.4051 577.256 98.3274L577.255 98.3316ZM716.826 64.3984C716.463 58.9364 714.625 54.7483 711.313 51.8343C707.955 48.8804 702.791 47.4035 695.822 47.4035C684.186 47.4035 674.245 51.5207 666 59.755C657.648 68.0954 652.232 79.7826 649.75 94.8168C647.215 110.062 648.152 121.854 652.561 130.192C656.767 138.148 664.651 142.126 676.21 142.126C686.666 142.126 694.98 139.964 701.151 135.641C706.35 131.999 709.786 127.268 711.459 121.449L679.268 121.449L685.668 81.7665L770.163 81.7665L765.672 109.548C762.92 126.334 756.998 140.695 747.906 152.632C738.819 164.563 727.527 173.699 714.03 180.041C700.565 186.367 685.799 189.53 669.731 189.53C651.869 189.53 636.757 185.692 624.394 178.017C611.95 170.293 603.076 159.294 597.772 145.021C592.513 130.866 591.465 114.098 594.629 94.717C597.128 79.571 601.674 66.1397 608.266 54.423C614.861 42.7019 622.94 32.7835 632.504 24.6678C642.069 16.5505 652.624 10.4091 664.168 6.24353C675.703 2.08118 687.656 0 700.025 0C714.539 0 727.238 2.73395 738.121 8.20185C749.08 13.708 757.485 21.2993 763.334 30.9758C769.204 40.6878 771.743 51.8258 770.952 64.3897L770.806 66.7046L716.98 66.7046L716.826 64.3984ZM55.4763 184.198L85.5868 2.45654L165.074 2.45654C178.822 2.45654 190.44 5.19871 199.926 10.683C209.513 16.2254 216.398 24.0204 220.581 34.068C224.732 44.0378 225.719 55.6311 223.541 68.8478C221.373 82.2382 216.559 93.7922 209.097 103.51C201.639 113.222 192.163 120.693 180.671 125.923C169.228 131.129 156.441 133.732 142.31 133.732L117.605 133.732L108.675 187.073L55 187.073L55.4763 184.198ZM217.275 184.198L247.386 2.45654L326.873 2.45654C340.588 2.45654 352.209 4.97927 361.733 10.0247C371.401 15.1463 378.364 22.5306 382.623 32.1776C386.848 41.7514 387.871 53.156 385.69 66.3913C383.578 79.2664 378.991 90.1987 371.93 99.188C365.348 107.567 357.175 114.121 347.412 118.849L373.167 187.073L314.992 187.073L293.366 127.766L280.368 127.766L270.474 187.073L216.799 187.073L217.275 184.198ZM770.962 184.198L801.073 2.45654L880.56 2.45654C894.273 2.45654 905.894 4.97927 915.422 10.0247C925.087 15.1464 932.05 22.5306 936.313 32.1776C940.537 41.7512 941.559 53.1557 939.378 66.3913C937.263 79.2666 932.678 90.1989 925.621 99.188C919.035 107.567 910.861 114.121 901.097 118.849L926.853 187.073L868.68 187.073L847.054 127.766L834.055 127.766L824.162 187.073L770.486 187.073L770.962 184.198ZM988.59 187.073L930.519 187.073L1021.92 2.45654L1092.08 2.45654L1122.31 187.073L1064.72 187.073L1060.08 152.683L1004.7 152.683L988.59 187.073ZM1164.24 2.45654L1228.85 2.45654L1253.34 102.689L1310.95 2.45654L1375.87 2.45654L1345.28 187.073L1292.65 187.073L1308.55 90.8129L1256.04 185.669L1223.89 185.669L1202.64 89.3646L1186.28 187.073L1133.66 187.073L1164.24 2.45654ZM574.823 97.9231C571.555 117.458 565.076 133.835 555.387 147.053C545.697 160.272 533.936 170.244 520.103 176.97C506.269 183.696 491.473 187.059 475.713 187.059C458.903 187.059 444.311 183.404 431.937 176.093C419.563 168.781 410.545 158.078 404.883 143.983C399.221 129.887 398.083 112.662 401.468 92.3085C404.62 72.7734 411.04 56.3382 420.729 43.0029C430.419 29.6676 442.239 19.5784 456.189 12.7353C470.139 5.89211 485.052 2.47054 500.929 2.47054C517.622 2.47054 532.141 6.15531 544.486 13.5248C556.831 20.8943 565.82 31.6854 571.453 45.898C577.085 60.1107 578.209 77.4524 574.823 97.9231ZM714.559 118.979L682.164 118.979L682.562 116.508L687.767 84.237L767.266 84.237L766.866 86.7076L763.239 109.153C760.553 125.53 754.789 139.523 745.946 151.133C737.103 162.743 726.115 171.633 712.983 177.804C699.85 183.974 685.432 187.059 669.731 187.059C652.337 187.059 637.658 183.345 625.692 175.917C613.726 168.489 605.19 157.903 600.082 144.158C594.975 130.413 593.969 114.066 597.062 95.1157C599.514 80.2598 603.964 67.1 610.414 55.6363C616.864 44.1726 624.758 34.4782 634.097 26.5531C643.436 18.628 653.738 12.6329 665.003 8.56796C676.269 4.50301 687.943 2.47054 700.025 2.47054C714.15 2.47054 726.48 5.11714 737.016 10.4103C747.552 15.7035 755.621 22.9853 761.224 32.2557C766.828 41.5261 769.251 52.1855 768.492 64.2341L719.287 64.2341C718.878 58.0928 716.762 53.3407 712.939 49.9776C709.116 46.6145 703.41 44.933 695.822 44.933C683.506 44.933 672.986 49.2903 664.259 58.0051C655.533 66.7198 649.886 78.8561 647.318 94.414C644.691 110.206 645.713 122.518 650.382 131.35C655.052 140.181 663.661 144.597 676.21 144.597C687.184 144.597 695.968 142.286 702.564 137.666C708.451 133.542 712.269 128.136 714.017 121.449C714.228 120.644 714.408 119.821 714.559 118.979ZM142.31 131.261L115.519 131.261L106.588 184.603L57.9086 184.603L58.3179 182.132L87.6767 4.92707L165.074 4.92707C178.382 4.92707 189.589 7.55904 198.694 12.823C207.8 18.0869 214.337 25.4857 218.307 35.0193C222.276 44.5529 223.209 55.6949 221.108 68.4453C219.007 81.4296 214.352 92.6154 207.144 102.003C199.935 111.39 190.771 118.614 179.652 123.673C168.532 128.732 156.085 131.261 142.31 131.261ZM369.993 97.6604C363.193 106.317 354.627 112.955 344.295 117.575L368.666 182.132L369.599 184.603L316.716 184.603L295.091 125.296L278.28 125.296L268.387 184.603L219.707 184.603L220.116 182.132L249.476 4.92707L326.873 4.92707C340.181 4.92707 351.417 7.35433 360.58 12.2089C369.744 17.0634 376.34 24.0527 380.367 33.1769C384.395 42.301 385.358 53.2383 383.257 65.9887C381.214 78.4467 376.792 89.0039 369.993 97.6604ZM923.681 97.6604C916.882 106.317 908.316 112.955 897.982 117.575L922.35 182.132L923.287 184.603L870.403 184.603L848.778 125.296L831.968 125.296L822.074 184.603L773.395 184.603L773.804 182.132L803.162 4.92707L880.56 4.92707C893.868 4.92707 905.105 7.35433 914.271 12.2089C923.432 17.0634 930.026 24.0527 934.053 33.1769C938.08 42.301 939.044 53.2383 936.946 65.9887C934.902 78.4467 930.48 89.0039 923.681 97.6604ZM1066.87 184.603L1062.23 150.212L1003.14 150.212L987.028 184.603L934.497 184.603L935.713 182.132L1023.44 4.92707L1089.99 4.92707L1119 182.132L1119.41 184.603L1066.87 184.603ZM1226.92 4.92707L1251.78 106.697L1253.89 106.697L1312.38 4.92707L1372.96 4.92707L1372.55 7.39761L1343.19 184.603L1295.56 184.603L1295.97 182.132L1312.12 84.3797L1312.32 83.1983L1312.61 81.441L1312.72 80.7278L1311.32 80.7278L1309.75 83.5548L1254.58 183.199L1225.87 183.199L1203.73 82.8579L1203.16 80.2705L1203.1 80.0259L1201.71 80.0259L1201.65 80.3482L1201.22 82.9227L1184.19 184.603L1136.57 184.603L1136.97 182.132L1166.34 4.92707L1226.92 4.92707ZM121.822 93.3612L138.808 93.3612C147.563 93.3612 154.699 91.1387 160.214 86.6936C165.731 82.2485 169.102 76.1657 170.327 68.4453C171.553 60.7248 170.152 54.7005 166.124 50.3724C162.097 46.0443 155.793 43.8802 147.213 43.8802L130.052 43.8802L122.233 90.8907L121.822 93.3612ZM301.657 87.3954L284.584 87.3954L284.997 84.9248L291.851 43.8802L309.012 43.8802C317.417 43.8802 323.735 45.6348 327.967 49.1442C332.199 52.6534 333.701 58.2683 332.476 65.9887C331.25 73.7092 327.952 79.207 322.583 82.4824C317.213 85.7577 310.238 87.3954 301.657 87.3954ZM838.272 87.3954L855.345 87.3954C863.925 87.3954 870.9 85.7577 876.27 82.4824C881.639 79.207 884.937 73.7092 886.164 65.9887C887.392 58.2683 885.888 52.6534 881.653 49.1442C877.422 45.6348 871.104 43.8802 862.699 43.8802L845.539 43.8802L838.685 84.9248L838.272 87.3954ZM525.793 92.3085C528.245 76.8675 527.268 65.1114 522.86 57.0401C518.454 48.9687 510.559 44.933 499.178 44.933C486.219 44.933 475.523 49.5974 467.089 58.9263C458.655 68.2551 453.124 81.2541 450.498 97.9231C447.696 113.54 448.688 125.223 453.475 132.973C458.261 140.722 466.258 144.597 477.465 144.597C490.247 144.597 500.797 140.049 509.115 130.954C517.433 121.859 522.992 108.977 525.793 92.3085ZM147.213 46.3507L132.141 46.3507L124.733 90.8907L138.808 90.8907C146.984 90.8907 153.605 88.8499 158.669 84.7684C163.692 80.7211 166.766 75.1506 167.892 68.0571C168.992 61.1306 167.801 55.7973 164.321 52.0572C160.781 48.2529 155.079 46.3507 147.213 46.3507ZM301.657 84.9248L287.497 84.9248L293.938 46.3507L309.012 46.3507C316.825 46.3507 322.619 47.9163 326.395 51.0475C329.904 53.9574 331.119 58.8085 330.041 65.6006C328.935 72.5689 326.021 77.4927 321.301 80.372C316.324 83.4072 309.776 84.9248 301.657 84.9248ZM855.345 84.9248L841.184 84.9248L847.625 46.3507L862.699 46.3507C870.512 46.3507 876.307 47.9163 880.083 51.0475C883.589 53.9575 884.806 58.8085 883.732 65.6006C882.625 72.5689 879.711 77.4927 874.988 80.372C870.012 83.4072 863.464 84.9248 855.345 84.9248ZM523.359 91.9203L523.362 91.8981C525.721 77.0241 524.833 65.8 520.698 58.2259C516.759 51.011 509.585 47.4035 499.178 47.4035C486.949 47.4035 476.862 51.7973 468.917 60.585C460.811 69.55 455.483 82.1245 452.933 98.3085C450.237 113.338 451.116 124.459 455.571 131.672C459.875 138.641 467.173 142.126 477.465 142.126C489.524 142.126 499.468 137.846 507.297 129.285C515.283 120.553 520.637 108.098 523.359 91.9203ZM1020.21 113.715L1057.33 113.715L1057 111.244L1049.66 56.6033L1049.45 55.1107L1049.36 54.4081L1047.96 54.4081L1047.87 54.6098L1047.12 56.2125L1021.36 111.244L1020.21 113.715ZM1054.51 111.244L1024.08 111.244L1047.73 60.7336L1054.51 111.244Z" fill-rule="evenodd" style="mix-blend-mode:normal" fill="#597818" >
</path>
</svg>
