<svg xmlns="http://www.w3.org/2000/svg" xmlns:xlink="http://www.w3.org/1999/xlink" width="1381.999267578125" height="202.925537109375" viewBox="0 0 1381.999267578125 202.925537109375" fill="none">
<path    style="mix-blend-mode:normal" fill="#EAEA24"  d="M66.9473 200.469L96.7154 20.7934L174.113 20.7934C194.075 20.7934 207.733 28.6893 207.733 28.6893C221.391 36.5852 227.345 50.8856 227.345 50.8856C233.299 65.186 230.147 84.3116 230.147 84.3116C226.995 103.788 216.182 117.869 216.182 117.869C205.369 131.95 188.69 139.539 188.69 139.539C172.011 147.128 151.349 147.128 151.349 147.128L124.557 147.128L115.627 200.469L66.9473 200.469ZM130.861 109.228L147.847 109.228C160.98 109.228 169.253 102.56 169.253 102.56C177.527 95.8923 179.366 84.3116 179.366 84.3116C181.204 72.7309 175.163 66.2387 175.163 66.2387C169.122 59.7465 156.252 59.7465 156.252 59.7465L139.091 59.7465L130.861 109.228Z">
</path>
<path    style="mix-blend-mode:normal" fill="#EAEA24"  d="M228.746 200.469L258.514 20.7934L335.911 20.7934C355.873 20.7934 369.619 28.0752 369.619 28.0752C383.365 35.357 389.406 49.0432 389.406 49.0432C395.448 62.7294 392.296 81.8551 392.296 81.8551C389.231 100.542 379.031 113.526 379.031 113.526C368.831 126.511 353.334 133.442 353.334 133.442L378.637 200.469L325.755 200.469L304.129 141.162L287.319 141.162L277.426 200.469L228.746 200.469ZM293.623 103.262L310.696 103.262C323.566 103.262 331.621 98.3487 331.621 98.3487C339.676 93.4357 341.515 81.8551 341.515 81.8551C343.353 70.2744 337.006 65.0105 337.006 65.0105C330.658 59.7465 318.05 59.7465 318.05 59.7465L300.89 59.7465L293.623 103.262Z">
</path>
<path    style="mix-blend-mode:normal" fill="#EAEA24"  d="M583.862 113.79C578.959 143.092 564.426 162.92 564.426 162.92C549.892 182.747 529.142 192.836 529.142 192.836C508.391 202.926 484.752 202.926 484.752 202.926C459.537 202.926 440.975 191.959 440.975 191.959C422.414 180.993 413.921 159.849 413.921 159.849C405.429 138.706 410.507 108.175 410.507 108.175C415.235 78.8722 429.768 58.8692 429.768 58.8692C444.302 38.8663 465.228 28.6016 465.228 28.6016C486.153 18.3369 509.967 18.3369 509.967 18.3369C535.008 18.3369 553.525 29.3912 553.525 29.3912C572.043 40.4454 580.492 61.7644 580.492 61.7644C588.941 83.0833 583.862 113.79 583.862 113.79ZM534.833 108.175C538.51 85.0134 531.9 72.9064 531.9 72.9064C525.289 60.7993 508.216 60.7993 508.216 60.7993C488.78 60.7993 476.128 74.7926 476.128 74.7926C463.477 88.7859 459.537 113.79 459.537 113.79C455.334 137.214 462.513 148.839 462.513 148.839C469.693 160.463 486.503 160.463 486.503 160.463C505.677 160.463 518.154 146.821 518.154 146.821C530.63 133.178 534.833 108.175 534.833 108.175Z">
</path>
<path    style="mix-blend-mode:normal" fill="#EAEA24"  d="M728.326 80.1004C727.713 70.8885 721.978 65.8439 721.978 65.8439C716.243 60.7993 704.861 60.7993 704.861 60.7993C686.388 60.7993 673.298 73.8714 673.298 73.8714C660.209 86.9436 656.357 110.28 656.357 110.28C652.417 133.968 659.421 147.216 659.421 147.216C666.425 160.463 685.249 160.463 685.249 160.463C701.709 160.463 711.603 153.532 711.603 153.532C721.496 146.602 723.598 134.845 723.598 134.845L691.203 134.845L696.806 100.103L776.305 100.103L772.277 125.019C768.25 149.584 754.986 166.999 754.986 166.999C741.721 184.414 722.022 193.67 722.022 193.67C702.322 202.926 678.77 202.926 678.77 202.926C652.679 202.926 634.731 191.784 634.731 191.784C616.783 180.642 609.122 160.025 609.122 160.025C601.461 139.407 606.101 110.982 606.101 110.982C609.778 88.6982 619.453 71.5027 619.453 71.5027C629.128 54.3071 643.136 42.4194 643.136 42.4194C657.145 30.5317 674.042 24.4343 674.042 24.4343C690.94 18.3369 709.064 18.3369 709.064 18.3369C730.252 18.3369 746.055 26.2767 746.055 26.2767C761.859 34.2165 770.264 48.122 770.264 48.122C778.669 62.0276 777.531 80.1004 777.531 80.1004L728.326 80.1004Z">
</path>
<path    style="mix-blend-mode:normal" fill="#EAEA24"  d="M782.434 200.469L812.202 20.7934L889.599 20.7934C909.561 20.7934 923.307 28.0752 923.307 28.0752C937.053 35.357 943.094 49.0432 943.094 49.0432C949.135 62.7294 945.983 81.8551 945.983 81.8551C942.919 100.542 932.719 113.526 932.719 113.526C922.519 126.511 907.022 133.442 907.022 133.442L932.325 200.469L879.443 200.469L857.817 141.162L841.007 141.162L831.113 200.469L782.434 200.469ZM847.311 103.262L864.384 103.262C877.254 103.262 885.309 98.3487 885.309 98.3487C893.364 93.4357 895.202 81.8551 895.202 81.8551C897.041 70.2744 890.693 65.0105 890.693 65.0105C884.346 59.7465 871.738 59.7465 871.738 59.7465L854.578 59.7465L847.311 103.262Z">
</path>
<path    style="mix-blend-mode:normal" fill="#EAEA24"  d="M996.064 200.469L943.532 200.469L1032.49 20.7934L1099.03 20.7934L1128.44 200.469L1075.91 200.469L1071.27 166.078L1012.17 166.078L996.064 200.469ZM1029.25 129.581L1066.37 129.581L1058.4 70.2744L1057 70.2744L1029.25 129.581Z">
</path>
<path    style="mix-blend-mode:normal" fill="#EAEA24"  d="M1175.37 20.7934L1235.96 20.7934L1260.83 122.563L1262.93 122.563L1321.41 20.7934L1382 20.7934L1352.23 200.469L1304.6 200.469L1321.76 96.5941L1320.36 96.5941L1263.63 199.065L1234.91 199.065L1212.15 95.8923L1210.74 95.8923L1193.23 200.469L1145.6 200.469L1175.37 20.7934Z">
</path>
</svg>
