<svg xmlns="http://www.w3.org/2000/svg" xmlns:xlink="http://www.w3.org/1999/xlink" width="1577" height="207" viewBox="0 0 1577 207" fill="none">
<g >
<path fill-rule="evenodd"  fill="rgba(89, 120, 24, 1)" style="mix-blend-mode:normal" d="M554.641,185.884c-14.44067,7.00733 -29.88067,10.511 -46.32,10.511c-17.59133,0 -32.89567,-3.83767 -45.913,-11.513c-13.13333,-7.744 -22.69733,-19.063 -28.692,-33.957c-5.95067,-14.78533 -7.16333,-32.75333 -3.638,-53.904c3.27067,-20.2302 9.959,-37.28557 20.065,-51.1661c10.11667,-13.89527 22.47033,-24.41433 37.061,-31.5572c14.56133,-7.12839 30.123,-10.69259 46.685,-10.6926c17.47733,0 32.71167,3.8696 45.703,11.6088c13.102,7.80533 22.634,19.2151 28.596,34.2293c5.91733,14.89913 7.114,32.98007 3.59,54.2428l-0.001,0.006c-3.39333,20.238 -10.14333,37.23667 -20.25,50.996c-10.118,13.77467 -22.41333,24.17333 -36.886,31.196zM134.656,6.0909h71.881l30.813,187.8181h-59.421l-4.705,-34.801h-55.398l-16.335,34.801h-60.01zM175.846,156.108l4.705,34.801h53.267l-0.492,-3l-29.337,-178.8181h-67.472l-88.7105,178.8181l-1.4883,3h53.267l16.3348,-34.801zM360.239,6.0909c21.52133,0 37.299,4.3585 47.333,13.0755c10.31467,8.961 14.226,20.91843 11.734,35.8723c-1.896,10.61673 -6.91667,19.7621 -15.062,27.4361c-5.67467,5.34573 -12.16533,9.36767 -19.472,12.0658c4.096,1.0486 7.87267,2.65763 11.33,4.8271c6.33267,3.9742 10.983,9.46163 13.951,16.4623c2.95,6.95733 3.66667,14.98433 2.15,24.081c-1.746,10.47733 -6.01767,19.80067 -12.815,27.97c-6.75733,8.12133 -15.505,14.49633 -26.243,19.125c-10.67733,4.602 -22.792,6.903 -36.344,6.903h-89.121l0.579,-3.491l30.601,-184.3271zM377.111,96.2748c-0.76067,-0.06887 -1.53167,-0.12047 -2.313,-0.1548c-0.236,-0.01033 -0.47267,-0.0191 -0.71,-0.0263l0.355,-1.7755c1.36067,-0.26767 2.69633,-0.5755 4.007,-0.9235c9.12267,-2.42207 17.03467,-6.7899 23.736,-13.1035c7.66467,-7.22067 12.385,-15.80257 14.161,-25.7457c2.308,-13.84947 -1.273,-24.8876 -10.743,-33.1144c-9.46933,-8.2268 -24.591,-12.3402 -45.365,-12.3402h-78.836l-30.184,181.8181h85.582c13.13933,0 24.858,-2.21933 35.156,-6.658c10.29867,-4.43933 18.67367,-10.53567 25.125,-18.289c6.45133,-7.75333 10.50533,-16.60133 12.162,-26.544c1.42067,-8.52267 0.76967,-15.995 -1.953,-22.417c-2.72267,-6.42133 -6.984,-11.452 -12.784,-15.092c-4.63867,-2.91133 -9.921,-4.73413 -15.847,-5.4684c-0.51133,-0.06333 -1.02767,-0.1186 -1.549,-0.1658zM787.736,126.06c-2.334,14.37267 -7.799,26.81233 -16.395,37.319c-8.56533,10.46867 -19.435,18.537 -32.609,24.205c-13.10333,5.63733 -27.64367,8.456 -43.621,8.456c-16.16067,0 -29.86933,-2.845 -41.126,-8.535c-11.43467,-5.77933 -19.74067,-14.019 -24.918,-24.719c-5.158,-10.66 -6.56167,-23.22633 -4.211,-37.699l19.772,-118.9961h55.443l-19.224,115.7071c-1.16067,7.494 0.25067,13.647 4.234,18.459c3.95733,4.77933 9.668,7.169 17.132,7.169c7.78067,0 14.58567,-2.51 20.415,-7.53c5.83333,-5.02333 9.34467,-11.37267 10.534,-19.048l19.065,-114.7571h55.443zM984.174,6.0909l-7.765,45.7727h-54.676l-23.437,142.0454h-54.732l23.437,-142.0454h-54.703l0.594,-3.5017l7.171,-42.271zM919.188,48.8636h54.687l6.238,-36.7727l0.509,-3h-158.025l-6.239,36.7727l-0.509,3h54.688l-0.495,3l-22.448,136.0454l-0.495,3h48.651zM589.109,152.912c9.82533,-13.376 16.395,-29.948 19.709,-49.716c3.43267,-20.71493 2.29333,-38.26347 -3.418,-52.6456c-5.71133,-14.38207 -14.82567,-25.3018 -27.343,-32.7592c-12.518,-7.4574 -27.24067,-11.1861 -44.168,-11.1861c-16.09867,0 -31.22067,3.46237 -45.366,10.3871c-14.14533,6.92473 -26.13033,17.13423 -35.955,30.6285c-9.82467,13.49433 -16.335,30.1255 -19.531,49.8935c-3.43267,20.59653 -2.27867,38.0268 3.462,52.2908c5.74133,14.26333 14.88567,25.09433 27.433,32.493c12.54733,7.398 27.34367,11.097 44.389,11.097c15.98,0 30.98367,-3.40333 45.011,-10.21c14.02667,-6.806 25.95233,-16.897 35.777,-30.273zM647.17,9.0909l-19.353,116.4771c-2.24933,13.84933 -0.93267,25.81967 3.95,35.911c4.88333,10.09133 12.74033,17.87433 23.571,23.349c10.83133,5.47467 24.089,8.212 39.773,8.212c15.566,0 29.71133,-2.73733 42.436,-8.212c12.72467,-5.47467 23.21533,-13.25767 31.472,-23.349c8.256,-10.09133 13.50867,-22.06167 15.758,-35.911l18.855,-113.4771l0.499,-3h-49.361l-18.644,112.2161c-1.302,8.404 -5.149,15.35833 -11.541,20.863c-6.392,5.504 -13.84933,8.256 -22.372,8.256c-8.404,0 -14.88467,-2.752 -19.442,-8.256c-4.55733,-5.50467 -6.185,-12.459 -4.883,-20.863l18.145,-109.2161l0.498,-3h-3.041zM321.73,82.5994h-3.04l0.49,-3l5.192,-31.8011h20.952c6.03667,0 10.84533,1.47963 14.426,4.4389c3.58067,2.95927 4.92733,7.27983 4.04,12.9617c-0.888,5.50427 -3.655,9.7804 -8.301,12.8284c-4.646,3.04807 -10.165,4.5721 -16.557,4.5721zM322.22,79.5994h16.712c5.79467,0 10.765,-1.36013 14.911,-4.0804c3.90933,-2.56453 6.23767,-6.1638 6.985,-10.7978c0.71067,-4.54713 -0.28567,-7.93763 -2.989,-10.1715c-3.026,-2.50093 -7.19767,-3.7514 -12.515,-3.7514h-18.402zM556.128,61.8253c4.46867,8.1676 5.46,20.0639 2.974,35.6889c-2.84067,16.86787 -8.478,29.90347 -16.912,39.1068c-8.434,9.20333 -19.13167,13.805 -32.093,13.805c-11.364,0 -19.47267,-3.921 -24.326,-11.763c-4.85333,-7.842 -5.85933,-19.66433 -3.018,-35.467c2.66333,-16.86787 8.271,-30.02187 16.823,-39.462c8.55267,-9.44007 19.39867,-14.1601 32.538,-14.1601c11.54067,0 19.54533,4.0838 24.014,12.2514zM553.496,63.2652c-3.89933,-7.12753 -11.02667,-10.6913 -21.382,-10.6913c-12.25267,0 -22.35733,4.39143 -30.314,13.1743c-8.152,8.9982 -13.51333,21.6368 -16.084,37.9158c-2.712,15.09 -1.84333,26.23 2.606,33.42c4.26733,6.89467 11.52567,10.342 21.775,10.342c12.08133,0 22.04167,-4.27733 29.881,-12.832c8.03,-8.76267 13.41733,-21.2797 16.162,-37.5511c0.00133,-0.009 0.00267,-0.018 0.004,-0.027c2.37333,-14.93687 1.49067,-26.1871 -2.648,-33.7507zM136.546,119.176h-3.314l1.407,-3l25.488,-54.3522l1.152,-2.4578l0.096,-0.2041h1.42l0.096,0.711l0.327,2.4255l7.252,53.8776l0.404,3zM137.953,116.176h29.49l-6.577,-48.8622zM307.327,151.491l0.472,-3l5.565,-35.352h23.792c7.63533,0 13.30233,1.71633 17.001,5.149c3.69933,3.43333 5.01633,8.346 3.951,14.738c-1.83467,12.31 -11.06767,18.465 -27.699,18.465h-20.045zM310.836,148.491h19.573c14.90733,0 23.15133,-5.30267 24.732,-15.908c0.89333,-5.36333 -0.11467,-9.39533 -3.024,-12.096c-3.124,-2.89867 -8.111,-4.348 -14.961,-4.348h-21.228z">
</path>
</g>
</svg>
