<svg xmlns="http://www.w3.org/2000/svg" xmlns:xlink="http://www.w3.org/1999/xlink" width="1537" height="211" viewBox="0 0 1537 211" fill="none">
<g >
<path    style="mix-blend-mode:normal" fill="#EAEA24"  d="M112.585 201.909L59.3182 201.909L149.517 20.0909L216.989 20.0909L246.818 201.909L193.551 201.909L188.846 167.108L128.92 167.108L112.585 201.909ZM146.232 130.176L183.874 130.176L175.795 70.1619L174.375 70.1619L146.232 130.176ZM264.219 201.909L294.403 20.0909L373.239 20.0909Q404.4 20.0909 418.604 32.4311Q432.809 44.7713 429.347 65.5455Q426.683 80.4602 415.186 91.2912Q403.69 102.122 387.443 105.318L387.088 107.094Q398.807 107.449 407.507 112.909Q416.207 118.369 420.291 128.001Q424.375 137.634 422.244 150.418Q419.759 165.332 410.082 176.962Q400.405 188.592 384.957 195.251Q369.51 201.909 349.801 201.909L264.219 201.909ZM320.327 162.491L343.409 162.491Q368.356 162.491 371.108 144.026Q372.706 134.438 367.157 129.288Q361.609 124.139 350.156 124.139L326.364 124.139L320.327 162.491ZM331.69 93.5994L351.932 93.5994Q361.52 93.5994 368.489 89.0273Q375.458 84.4553 376.79 76.1989Q378.121 67.6761 372.75 63.2372Q367.379 58.7983 358.324 58.7983L337.372 58.7983L331.69 93.5994ZM621.818 114.196Q616.847 143.848 602.109 163.912Q587.372 183.976 566.332 194.185Q545.291 204.395 521.321 204.395Q495.753 204.395 476.932 193.298Q458.111 182.2 449.499 160.805Q440.888 139.409 446.037 108.514Q450.831 78.8622 465.568 58.6207Q480.305 38.3793 501.523 27.9922Q522.741 17.6051 546.889 17.6051Q572.28 17.6051 591.057 28.7912Q609.833 39.9773 618.4 61.5504Q626.967 83.1236 621.818 114.196ZM572.102 108.514Q575.831 85.0767 569.128 72.8253Q562.425 60.5739 545.114 60.5739Q525.405 60.5739 512.576 74.734Q499.748 88.8942 495.753 114.196Q491.491 137.9 498.771 149.663Q506.051 161.426 523.097 161.426Q542.539 161.426 555.19 147.621Q567.841 133.816 572.102 108.514ZM767.77 20.0909L817.131 20.0909L797.777 136.568Q794.403 157.342 782.019 172.479Q769.634 187.616 750.547 195.828Q731.46 204.04 708.111 204.04Q684.585 204.04 668.338 195.828Q652.092 187.616 644.767 172.479Q637.443 157.342 640.817 136.568L660.17 20.0909L709.531 20.0909L690.888 132.307Q688.935 144.913 695.771 153.17Q702.607 161.426 715.213 161.426Q727.997 161.426 737.585 153.17Q747.173 144.913 749.126 132.307L767.77 20.0909ZM828.849 59.8636L835.597 20.0909L993.622 20.0909L986.875 59.8636L932.188 59.8636L908.75 201.909L860.099 201.909L883.537 59.8636L828.849 59.8636Z">
</path>
</g>
</svg>
