<svg xmlns="http://www.w3.org/2000/svg" xmlns:xlink="http://www.w3.org/1999/xlink" width="2192.9990234375" height="554.999755859375" viewBox="0 0 2192.9990234375 554.999755859375" fill="none">
<path d="M1154.55 96.6063C1154.1 89.8337 1151.84 84.6653 1147.78 81.1009C1143.63 77.4619 1137.15 75.6424 1128.35 75.6424C1113.45 75.6424 1100.72 80.8998 1090.17 91.4147C1079.41 102.128 1072.43 117.183 1069.22 136.58C1065.94 156.239 1067.12 171.391 1072.76 182.037C1078.03 191.965 1087.97 196.929 1102.6 196.929C1116.03 196.929 1126.69 194.181 1134.55 188.685C1140.57 184.482 1144.71 179.127 1146.99 172.621L1104.98 172.621L1113.83 117.875L1227.61 117.875L1221.45 155.869C1217.8 178.083 1209.93 197.099 1197.85 212.916C1185.78 228.722 1170.78 240.825 1152.85 249.227C1134.98 257.6 1115.39 261.787 1094.09 261.787C1070.37 261.787 1050.28 256.692 1033.82 246.501C1017.21 236.217 1005.36 221.579 998.289 202.589C991.296 183.821 989.897 161.625 994.092 135.999C997.4 115.999 1003.42 98.2557 1012.16 82.7682C1020.9 67.2726 1031.62 54.1566 1044.3 43.4203C1056.99 32.6811 1070.99 24.5555 1086.31 19.0433C1101.61 13.5372 1117.46 10.7841 1133.87 10.7841C1153.15 10.7841 1170.03 14.4138 1184.52 21.6732C1199.15 29.0038 1210.37 39.12 1218.19 52.0217C1226.05 64.9896 1229.46 79.8457 1228.4 96.59L1228.12 100.921L1154.84 100.921L1154.55 96.6063ZM432.113 19.3809L392.378 258.57L332.302 258.57L271.958 142.697L252.561 258.57L179.261 258.57L219.89 14.0015L280.9 14.0015L340.646 129.954L359.695 14.0015L433.007 14.0015L432.113 19.3809ZM441.601 14.0015L522.932 14.0015L551.643 105.817L610.831 14.0015L693.529 14.0015L575.889 181.745L562.998 258.57L490.15 258.57L503.268 180.399L441.601 14.0015ZM840.767 14.0015L914.071 14.0015L888.112 170.135C885.069 188.867 877.939 205.083 866.721 218.783C855.552 232.427 841.381 242.94 824.21 250.322C807.146 257.658 788.217 261.327 767.423 261.327C746.375 261.327 728.509 257.618 713.825 250.202C698.868 242.646 688 231.868 681.223 217.87C674.475 203.934 672.635 187.522 675.705 168.636L701.414 14.0015L774.72 14.0015L749.68 164.619C748.211 174.094 749.985 181.86 755.003 187.916C759.98 193.924 767.186 196.929 776.621 196.929C786.514 196.929 795.166 193.74 802.577 187.362C809.994 180.979 814.458 172.909 815.97 163.154L840.767 14.0015ZM1338.26 19.3809L1298.53 258.57L1225.68 258.57L1266.31 14.0015L1339.16 14.0015L1338.26 19.3809ZM1523.68 253.19L1563.41 14.0015L1636.24 14.0015L1623.51 91.574C1627.09 87.8349 1631.17 84.372 1635.75 81.1853C1645.97 74.0845 1658.12 70.5341 1672.2 70.5341C1684.77 70.5341 1696.17 73.889 1706.41 80.5985C1716.77 87.3931 1724.33 97.9649 1729.07 112.314C1733.72 126.364 1734.22 144.411 1730.57 166.456C1727.09 187.457 1720.88 204.927 1711.96 218.865C1702.97 232.915 1692.31 243.422 1679.98 250.387C1667.63 257.374 1654.76 260.867 1641.38 260.867C1627.87 260.867 1617.03 257.555 1608.86 250.929C1604.51 247.408 1601 243.404 1598.32 238.917L1595.2 258.57L1522.78 258.57L1523.68 253.19ZM2036.4 19.3809L1996.67 258.57L1923.82 258.57L1964.46 14.0015L2037.29 14.0015L2036.4 19.3809ZM1152.95 167.998L1110.41 167.998L1111.16 163.376L1117.77 122.497L1222.17 122.497L1221.42 127.119L1216.88 155.13C1213.36 176.579 1205.79 194.906 1194.17 210.112C1182.56 225.317 1168.13 236.961 1150.89 245.042C1133.64 253.124 1114.71 257.165 1094.09 257.165C1071.25 257.165 1051.97 252.301 1036.25 242.572C1020.54 232.843 1009.33 218.978 1002.62 200.976C995.916 182.975 994.593 161.564 998.655 136.745C1001.87 117.288 1007.72 100.052 1016.19 85.0384C1024.66 70.0242 1035.03 57.3273 1047.29 46.9476C1059.56 36.568 1073.08 28.7163 1087.88 23.3924C1102.67 18.0685 1118 15.4065 1133.87 15.4065C1152.42 15.4065 1168.61 18.8728 1182.45 25.8053C1196.28 32.7379 1206.88 42.2749 1214.24 54.4164C1221.6 66.5579 1224.78 80.5188 1223.78 96.2989L1159.16 96.2989C1158.63 88.2556 1155.85 82.0316 1150.83 77.6269C1145.81 73.2223 1138.31 71.02 1128.35 71.02C1112.18 71.02 1098.36 76.7269 1086.9 88.1406C1075.44 99.5545 1068.03 115.45 1064.65 135.826C1061.2 156.509 1062.55 172.634 1068.68 184.2C1074.81 195.767 1086.12 201.551 1102.6 201.551C1117.01 201.551 1128.54 198.525 1137.2 192.474C1144.52 187.361 1149.41 180.743 1151.85 172.621C1152.3 171.13 1152.67 169.59 1152.95 167.998ZM269.211 131.096L268.409 135.883L248.646 253.948L184.719 253.948L185.487 249.325L223.811 18.6239L278.08 18.6239L339.388 137.61L341.377 141.471L341.547 141.801L343.388 141.801L343.557 140.767L344.2 136.852L363.624 18.6239L427.551 18.6239L426.783 23.2463L388.457 253.948L335.108 253.948L273.225 135.12L270.853 130.563L270.722 130.311L269.342 130.311L269.211 131.096ZM613.353 18.6239L553.439 111.564L552.305 113.325L551.725 114.224L549.426 114.224L548.846 112.37L548.379 110.879L519.532 18.6239L448.246 18.6239L449.959 23.2463L508.034 179.949L496.392 249.325L495.616 253.948L559.084 253.948L571.501 179.949L681.397 23.2463L684.639 18.6239L613.353 18.6239ZM769.262 18.6239L705.335 18.6239L680.27 169.377C677.357 187.303 679.062 202.796 685.386 215.856C691.71 228.917 701.886 238.99 715.913 246.076C729.94 253.161 747.11 256.704 767.423 256.704C787.582 256.704 805.902 253.161 822.381 246.076C838.862 238.99 852.449 228.917 863.141 215.856C873.834 202.796 880.637 187.303 883.55 169.377L907.846 23.2463L908.615 18.6239L844.688 18.6239L820.542 163.863C818.855 174.74 813.873 183.741 805.594 190.865C797.316 197.989 787.658 201.551 776.621 201.551C765.736 201.551 757.342 197.989 751.44 190.865C745.538 183.741 743.431 174.74 745.118 163.863L768.494 23.2463L769.262 18.6239ZM1270.23 18.6239L1333.7 18.6239L1332.93 23.2463L1294.61 253.948L1231.14 253.948L1231.91 249.325L1270.23 18.6239ZM1617 108.249C1618.47 105.516 1620.16 102.896 1622.06 100.387C1626.4 94.669 1631.84 89.5335 1638.39 84.9809C1647.81 78.4314 1659.08 75.1566 1672.2 75.1566C1683.84 75.1566 1694.4 78.259 1703.87 84.4638C1713.33 90.6686 1720.27 100.435 1724.68 113.764C1729.09 127.093 1729.53 144.405 1726.01 165.701C1722.64 186.078 1716.65 202.969 1708.06 216.374C1699.48 229.779 1689.36 239.775 1677.72 246.364C1666.06 252.951 1653.95 256.245 1641.38 256.245C1628.96 256.245 1619.09 253.277 1611.78 247.341C1606.16 242.792 1602.09 237.357 1599.56 231.034C1598.83 229.197 1598.23 227.283 1597.76 225.295C1597.73 225.192 1597.7 225.091 1597.68 224.991L1595.85 224.991L1595.77 225.432L1594.8 231.535L1591.25 253.948L1528.24 253.948L1529.01 249.325L1567.33 18.6239L1630.8 18.6239L1630.05 23.2463L1617.68 98.5294L1616.85 103.627L1616.15 107.794L1616.08 108.249L1617 108.249ZM1968.38 18.6239L2031.84 18.6239L2031.06 23.2463L1992.75 253.948L1929.28 253.948L1930.05 249.325L1968.38 18.6239ZM1411.42 261.787C1391.39 261.787 1374.81 257.747 1361.68 249.667C1348.39 241.483 1339.07 230.05 1333.72 215.37C1328.46 200.937 1327.39 184.283 1330.52 165.407C1333.62 146.643 1340.12 130.14 1350.02 115.896C1359.97 101.587 1372.76 90.4454 1388.39 82.4722C1404 74.5135 1421.8 70.5341 1441.78 70.5341C1461.74 70.5341 1478.28 74.5741 1491.41 82.654C1504.69 90.8361 1514.03 102.265 1519.42 116.94C1524.72 131.377 1525.81 148.034 1522.69 166.914C1519.59 185.684 1513.04 202.192 1503.05 216.44C1493.03 230.741 1480.22 241.876 1464.64 249.846C1449.07 257.807 1431.33 261.787 1411.42 261.787ZM1786.71 261.327C1768.74 261.327 1754.64 256.717 1744.4 247.498C1733.79 237.936 1730.13 223.586 1733.41 204.448C1735.69 190.711 1740.65 179.565 1748.3 171.009C1755.87 162.553 1765.21 156.238 1776.35 152.065C1787.18 148.004 1798.95 145.498 1811.65 144.546C1826.24 143.424 1836.68 141.864 1842.97 139.866C1847.65 138.379 1850.36 136.109 1851.08 133.058L1851.08 132.723L1851.12 132.382C1851.54 129.554 1850.91 127.467 1849.21 126.124C1846.94 124.336 1843.58 123.443 1839.14 123.443C1834.01 123.443 1829.65 124.524 1826.05 126.687C1822.76 128.671 1820.48 131.842 1819.21 136.201L1818.24 139.529L1750.55 139.529L1751.85 133.877C1754.47 122.427 1759.83 111.879 1767.93 102.231C1776.03 92.5958 1786.75 84.8949 1800.1 79.1288C1813.37 73.399 1829.15 70.5341 1847.42 70.5341C1864.79 70.5341 1879.46 73.2375 1891.41 78.6442C1903.64 84.1798 1912.57 91.7352 1918.21 101.311C1923.91 111.011 1925.75 121.854 1923.73 133.838L1902.85 258.57L1834.13 258.57L1836.75 242.919C1831.63 247.882 1826.02 251.754 1819.9 254.535C1809.94 259.063 1798.88 261.327 1786.71 261.327ZM1411.42 257.165C1392.26 257.165 1376.49 253.354 1364.11 245.732C1351.73 238.109 1343.05 227.461 1338.07 213.788C1333.09 200.115 1332.09 184.239 1335.08 166.16C1338.07 148.082 1344.32 132.206 1353.82 118.533C1363.32 104.859 1375.55 94.2115 1390.5 86.5895C1405.45 78.9676 1422.54 75.1566 1441.78 75.1566C1460.86 75.1566 1476.6 78.9676 1488.97 86.5895C1501.36 94.2115 1510.06 104.859 1515.07 118.533C1520.1 132.206 1521.12 148.082 1518.13 166.16C1515.14 184.239 1508.85 200.115 1499.27 213.788C1489.69 227.461 1477.45 238.109 1462.53 245.732C1447.62 253.354 1430.59 257.165 1411.42 257.165ZM1844.37 144.271C1851 142.165 1854.78 138.584 1855.7 133.528L1855.7 133.068C1856.39 128.472 1855.18 124.948 1852.08 122.497C1848.97 120.046 1844.66 118.82 1839.14 118.82C1833.16 118.82 1828.01 120.122 1823.68 122.727C1819.34 125.331 1816.37 129.391 1814.77 134.907L1756.35 134.907C1756.71 133.348 1757.12 131.807 1757.58 130.284C1760.33 121.323 1764.96 112.963 1771.47 105.204C1779.1 96.1266 1789.26 88.8493 1801.94 83.3722C1814.62 77.8951 1829.78 75.1566 1847.42 75.1566C1864.13 75.1566 1878.15 77.7228 1889.5 82.8552C1900.85 87.9875 1909.08 94.92 1914.21 103.653C1919.35 112.385 1921 122.191 1919.16 133.068L1898.93 253.948L1839.61 253.948L1840.38 249.325L1842.49 236.641L1842.97 233.751L1843.6 229.99L1843.74 229.128L1842.37 229.128C1841 231.08 1839.58 232.922 1838.13 234.654C1832.2 241.691 1825.49 246.916 1817.99 250.328C1808.64 254.579 1798.21 256.704 1786.71 256.704C1769.92 256.704 1756.85 252.491 1747.5 244.065C1738.15 235.639 1734.96 222.693 1737.96 205.227C1740.1 192.359 1744.7 181.979 1751.75 174.089C1758.81 166.199 1767.54 160.3 1777.96 156.393C1788.4 152.487 1799.75 150.074 1812.01 149.154C1826.95 148.006 1837.74 146.378 1844.37 144.271ZM1419.24 210.284C1427.44 210.284 1434.59 206.32 1440.69 198.391C1446.78 190.463 1450.98 179.566 1453.27 165.701C1455.5 151.836 1454.9 140.939 1451.49 133.011C1448.08 125.082 1442.24 121.118 1433.96 121.118C1425.68 121.118 1418.49 125.082 1412.4 133.011C1406.31 140.939 1402.15 151.836 1399.93 165.701C1397.63 179.566 1398.18 190.463 1401.59 198.391C1405 206.32 1410.89 210.284 1419.24 210.284ZM1605.04 165.701C1602.97 178.57 1603.8 188.758 1607.52 196.266C1611.24 203.773 1617.47 207.526 1626.21 207.526C1634.94 207.526 1642.36 203.83 1648.45 196.437C1654.55 189.045 1658.63 178.8 1660.7 165.701C1662.76 152.602 1662.01 142.356 1658.45 134.964C1654.89 127.572 1648.74 123.876 1640.01 123.876C1631.26 123.876 1623.77 127.572 1617.53 134.964C1611.28 142.356 1607.11 152.602 1605.04 165.701ZM1419.24 205.662C1425.92 205.662 1431.85 202.3 1437.02 195.576C1442.64 188.259 1446.54 178.049 1448.71 164.944C1450.79 151.979 1450.3 141.943 1447.24 134.837C1444.63 128.772 1440.21 125.741 1433.96 125.741C1427.2 125.741 1421.24 129.102 1416.07 135.826C1410.45 143.136 1406.59 153.338 1404.49 166.433C1402.34 179.423 1402.79 189.467 1405.84 196.565C1408.45 202.63 1412.92 205.662 1419.24 205.662ZM1609.62 166.434C1607.71 178.331 1608.39 187.591 1611.67 194.215C1614.54 200.008 1619.38 202.904 1626.21 202.904C1633.48 202.904 1639.71 199.769 1644.88 193.499C1650.44 186.755 1654.19 177.249 1656.13 164.98C1658.04 152.832 1657.43 143.496 1654.28 136.971C1651.56 131.322 1646.8 128.498 1640.01 128.498C1632.7 128.498 1626.38 131.648 1621.06 137.947C1615.36 144.682 1611.55 154.174 1609.62 166.422L1609.62 166.434ZM1805.22 189.773C1809.21 186.518 1815 184.316 1822.58 183.166C1827.64 182.247 1832.41 181.289 1836.89 180.294C1839.37 179.744 1841.69 179.137 1843.85 178.471C1845.6 177.93 1847.25 177.35 1848.79 176.732L1847.98 181.975L1846.5 191.439C1845.12 199.483 1841.19 205.707 1834.72 210.112C1828.23 214.516 1821.43 216.719 1814.3 216.719C1808.79 216.719 1804.55 215.397 1801.6 212.754C1798.65 210.111 1797.52 206.377 1798.21 201.551C1798.9 196.955 1801.24 193.029 1805.22 189.773ZM1837.89 184.805C1839.69 184.408 1841.41 183.98 1843.06 183.52L1841.93 190.659C1840.78 197.411 1837.51 202.621 1832.11 206.289C1826.42 210.161 1820.48 212.096 1814.3 212.096C1809.97 212.096 1806.76 211.168 1804.68 209.312C1802.96 207.768 1802.33 205.41 1802.79 202.237C1803.3 198.817 1805.09 195.856 1808.15 193.352C1811.48 190.631 1816.52 188.759 1823.28 187.736L1823.34 187.727L1823.42 187.715C1828.53 186.785 1833.35 185.815 1837.89 184.805ZM1181.57 555C1163.93 555 1149.21 551.828 1137.41 545.485C1125.42 539.038 1116.77 530.348 1111.47 519.416C1106.18 508.511 1104.57 496.529 1106.64 483.471C1108.94 469.142 1114.9 457.22 1124.51 447.703C1132.9 439.388 1143.25 431.327 1155.56 423.518C1152.35 417.207 1149.72 410.256 1147.67 402.665C1145.12 393.199 1144.78 383.037 1146.66 372.178C1148.85 359.504 1153.85 347.93 1161.65 337.458C1169.43 327.013 1179.26 318.678 1191.15 312.454C1203.09 306.203 1216.3 303.078 1230.78 303.078C1244.93 303.078 1256.73 306.032 1266.18 311.939C1275.72 317.903 1282.53 325.863 1286.63 335.818C1290.68 345.684 1291.68 356.495 1289.61 368.252C1287.73 379.97 1283.11 390.859 1275.73 400.919C1268.45 410.854 1258.88 419.54 1247.04 426.977L1238.41 432.37L1256.26 456.35C1258.78 452.359 1261.03 448.13 1263 443.664C1265.83 437.245 1267.82 430.439 1268.99 423.245L1269.62 419.361L1329.08 419.361L1328.25 424.688C1325.82 440.46 1321.56 455.569 1315.47 470.015C1309.83 483.387 1302.41 495.366 1293.2 505.953L1326.9 551.323L1251.97 551.323L1242.99 539.769C1233.42 544.962 1223.65 548.734 1213.68 551.085C1202.6 553.695 1191.9 555 1181.57 555ZM153.206 384.497C153.765 378.36 152.375 373.638 149.037 370.331C145.569 366.896 139.296 365.179 130.218 365.179C121.261 365.179 114.659 366.587 110.414 369.405C106.498 372.004 104.193 375.293 103.501 379.274L103.473 379.436L103.433 379.594C102.604 382.931 103.76 385.859 106.9 388.378C111.004 391.673 118.023 394.373 127.96 396.48L146.41 400.629C172.557 406.383 190.725 415.87 200.914 429.091C211.238 442.487 214.795 458.809 211.585 478.058C207.452 502.6 195.337 521.464 175.24 534.65C155.499 547.604 130.22 554.081 99.4041 554.08C78.3819 554.08 60.4705 550.91 45.67 544.572C30.415 538.038 19.3728 527.967 12.5436 514.359C5.77138 500.864 4.07592 483.818 7.45727 463.222L8.09326 459.346L77.9828 459.346L77.3176 464.554C76.1391 473.781 78.0135 480.67 82.9406 485.223C88.148 490.034 96.2419 492.44 107.223 492.44C116.676 492.44 123.956 490.822 129.064 487.585C133.754 484.614 136.449 480.942 137.149 476.568C137.756 473.073 136.439 470.073 133.197 467.57C129.032 464.356 120.965 461.444 108.996 458.833L86.4331 453.772C65.5185 448.967 49.6459 440.949 38.8151 429.718C27.5497 418.037 23.5354 402.243 26.7722 382.335C29.3689 366.441 35.9252 352.55 46.4411 340.661C56.8464 328.898 70.0685 319.758 86.1073 313.243C102.034 306.772 119.65 303.537 138.956 303.537C158.687 303.537 175.297 306.876 188.783 313.555C202.561 320.378 212.497 330.005 218.592 342.436C224.663 354.816 226.312 369.232 223.541 385.684L222.892 389.539L152.747 389.539L153.206 384.497ZM714.265 433.94C709.851 460.248 701.065 482.354 687.906 500.258C674.73 518.185 658.715 531.72 639.861 540.863C621.058 549.981 600.953 554.541 579.548 554.541C556.632 554.541 536.686 549.539 519.711 539.536C502.558 529.43 490.068 514.659 482.241 495.226C474.483 475.962 472.898 452.574 477.486 425.062C481.74 398.765 490.446 376.586 503.604 358.525C516.778 340.441 532.868 326.75 551.874 317.452C570.836 308.175 591.099 303.537 612.662 303.537C635.434 303.537 655.29 308.58 672.231 318.666C689.343 328.855 701.791 343.743 709.575 363.331C717.289 382.742 718.853 406.275 714.266 433.931L714.265 433.94ZM215.337 545.943L255.072 306.754L328.371 306.754L313.193 398.677L388.442 398.677L403.618 306.754L476.927 306.754L436.299 551.323L362.999 551.323L378.176 459.4L302.93 459.4L287.752 551.323L214.443 551.323L215.337 545.943ZM750.813 547.291L719.786 306.754L800.701 306.754L808.323 440.056L865.488 306.754L928.84 306.754L941.978 440.586L993.68 306.754L1075.36 306.754L962.561 551.323L894.395 551.323L877.608 428.298L819.5 551.323L751.333 551.323L750.813 547.291ZM1430.55 362.082L1439.94 306.754L1653.99 306.754L1643.68 367.476L1572.86 367.476L1542.52 551.323L1470.13 551.323L1500.49 367.476L1429.63 367.476L1430.55 362.082ZM1628.77 545.943L1668.5 306.754L1847.61 306.754L1837.29 367.476L1731.56 367.476L1726.59 398.677L1823.69 398.677L1813.38 459.4L1716.39 459.4L1711.42 490.602L1816.79 490.602L1806.49 551.323L1627.87 551.323L1628.77 545.943ZM1830.2 545.943L1869.95 306.754L1943.24 306.754L1912.89 490.602L2008.11 490.602L1997.81 551.323L1829.32 551.323L1830.2 545.943ZM2015.09 545.943L2054.82 306.754L2128.12 306.754L2097.78 490.602L2193 490.602L2182.68 551.323L2014.2 551.323L2015.09 545.943ZM1231.7 431.107L1234.47 434.828L1253.53 460.425L1256.42 464.314C1257.38 463.006 1258.31 461.672 1259.21 460.31C1262.25 455.691 1264.92 450.764 1267.23 445.527C1270.22 438.748 1272.33 431.567 1273.55 423.983L1323.68 423.983C1323.44 425.53 1323.19 427.071 1322.91 428.606C1320.45 442.338 1316.55 455.543 1311.21 468.222C1305.27 482.316 1297.28 494.802 1287.24 505.68L1314.27 542.079L1317.7 546.701L1254.24 546.701L1244.23 533.831L1244.12 533.831C1233.85 539.806 1223.35 544.057 1212.62 546.585C1201.88 549.113 1191.54 550.377 1181.57 550.377C1164.71 550.377 1150.72 547.39 1139.6 541.414C1128.49 535.439 1120.5 527.434 1115.63 517.4C1110.76 507.365 1109.29 496.296 1111.21 484.192C1113.35 470.864 1118.87 459.795 1127.76 450.986C1136.65 442.177 1147.85 433.636 1161.34 425.362L1161.68 425.133C1157.69 418.161 1154.51 410.271 1152.14 401.461C1149.76 392.652 1149.45 383.154 1151.22 372.966C1153.29 361.015 1158 350.099 1165.36 340.217C1172.72 330.336 1182.03 322.446 1193.3 316.548C1204.57 310.649 1217.06 307.7 1230.78 307.7C1244.04 307.7 1255.02 310.42 1263.72 315.859C1272.42 321.297 1278.63 328.536 1282.35 337.575C1286.07 346.614 1286.97 356.573 1285.05 367.45C1283.29 378.481 1278.94 388.727 1272 398.187C1265.06 407.648 1255.92 415.94 1244.58 423.064L1235.64 428.649L1231.7 431.107ZM157.813 384.916C157.959 383.302 157.991 381.761 157.909 380.294C157.605 374.87 155.733 370.455 152.294 367.048C147.924 362.72 140.566 360.556 130.218 360.556C120.33 360.556 112.876 362.222 107.855 365.554C102.835 368.887 99.8646 373.196 98.9447 378.482C98.4081 380.642 98.3783 382.676 98.8553 384.583C100.695 391.94 110.076 397.413 126.999 401.002L145.396 405.139C170.46 410.654 187.745 419.578 197.249 431.911C206.755 444.245 210.013 459.374 207.023 477.298C203.114 500.509 191.674 518.338 172.702 530.786C153.731 543.234 129.298 549.458 99.4041 549.458C79.0149 549.458 61.7109 546.413 47.492 540.324C33.2732 534.233 23.0019 524.888 16.6781 512.287C10.3544 499.685 8.80222 483.579 12.0216 463.969L72.7295 463.969C72.5255 465.566 72.4032 467.107 72.3626 468.591C72.1286 477.144 74.608 483.819 79.8006 488.617C85.8946 494.247 95.0352 497.062 107.223 497.062C117.571 497.062 125.677 495.205 131.54 491.489C137.404 487.774 140.796 483.044 141.715 477.298C142.635 472.012 140.738 467.55 136.025 463.912C131.311 460.274 122.63 457.075 109.982 454.317L87.446 449.262C67.4404 444.666 52.3402 437.082 42.1455 426.51C31.9509 415.939 28.3483 401.461 31.3377 383.077C33.7906 368.063 39.9802 354.945 49.9066 343.723C59.8329 332.501 72.4802 323.768 87.8484 317.524C103.217 311.281 120.253 308.159 138.956 308.159C157.966 308.159 173.891 311.339 186.73 317.697C199.568 324.055 208.805 332.98 214.439 344.47C220.072 355.96 221.586 369.442 218.981 384.916L157.813 384.916ZM709.703 433.176C705.41 458.76 696.902 480.209 684.178 497.522C671.453 514.834 656.008 527.895 637.841 536.704C619.675 545.514 600.244 549.918 579.548 549.918C557.473 549.918 538.31 545.13 522.061 535.555C505.81 525.979 493.967 511.961 486.532 493.5C479.097 475.039 477.603 452.48 482.048 425.822C486.188 400.236 494.619 378.71 507.343 361.245C520.067 343.78 535.589 330.566 553.91 321.603C572.229 312.641 591.813 308.159 612.662 308.159C634.585 308.159 653.651 312.986 669.863 322.638C686.075 332.29 697.88 346.423 705.276 365.037C712.673 383.652 714.148 406.365 709.703 433.176ZM307.743 403.3L392.366 403.3L407.543 311.377L471.47 311.377L470.702 315.999L432.378 546.701L368.451 546.701L369.214 542.079L382.865 459.4L383.628 454.778L299.004 454.778L283.828 546.701L219.9 546.701L220.667 542.079L258.993 311.377L322.92 311.377L322.157 315.999L308.506 398.677L307.743 403.3ZM806.496 456.049L808.915 450.41L868.538 311.377L924.646 311.377L938.271 450.179L938.831 455.878L938.903 456.616L940.743 456.616L940.815 456.428L942.983 450.82L996.852 311.377L1068.14 311.377L1066.01 315.999L959.599 546.701L898.431 546.701L881.23 420.631L880.622 416.178L880.496 415.25L878.655 415.25L878.529 415.518L876.461 419.897L816.569 546.701L755.4 546.701L725.642 315.999L725.047 311.377L796.333 311.377L804.234 449.587L804.564 455.348L804.611 456.155L806.45 456.155L806.496 456.049ZM1639.77 362.853L1568.94 362.853L1538.59 546.701L1475.59 546.701L1476.34 542.079L1505.18 367.476L1505.93 362.853L1435.11 362.853L1435.89 358.231L1443.85 311.377L1648.5 311.377L1647.73 315.999L1639.77 362.853ZM1833.39 362.853L1727.61 362.853L1721.91 398.677L1721.18 403.3L1818.22 403.3L1817.43 407.922L1809.48 454.778L1712.44 454.778L1706.73 490.602L1705.99 495.224L1811.31 495.224L1810.53 499.847L1802.57 546.701L1633.33 546.701L1634.1 542.079L1672.43 311.377L1842.13 311.377L1841.35 315.999L1833.39 362.853ZM1907.43 495.224L2002.63 495.224L2001.85 499.847L1993.89 546.701L1834.76 546.701L1835.54 542.079L1873.86 311.377L1937.79 311.377L1937.03 315.999L1908.2 490.602L1907.43 495.224ZM2092.32 495.224L2187.53 495.224L2186.74 499.847L2178.78 546.701L2019.66 546.701L2020.43 542.079L2058.74 311.377L2122.68 311.377L2121.91 315.999L2093.08 490.602L2092.32 495.224ZM1209.51 398.244L1220.2 392.269C1226.11 388.899 1230.28 385.375 1232.74 381.699C1235.19 378.022 1236.68 374.804 1237.22 372.046C1237.99 368.37 1237.24 365.076 1234.98 362.165C1232.72 359.254 1228.56 357.798 1222.5 357.798C1217.29 357.798 1212.77 359.196 1208.94 361.992C1205.1 364.788 1202.88 368.753 1202.27 373.886C1201.81 377.792 1202.25 381.718 1203.59 385.662C1204.52 388.388 1205.74 391.234 1207.28 394.198C1207.42 394.475 1207.57 394.755 1207.72 395.038C1208.28 396.093 1208.88 397.162 1209.51 398.244ZM1211.32 391.941L1217.95 388.235C1223.19 385.24 1226.84 382.206 1228.89 379.134C1231 375.972 1232.26 373.316 1232.68 371.165C1233.16 368.841 1232.71 366.786 1231.33 365C1229.99 363.28 1227.05 362.42 1222.5 362.42C1218.3 362.42 1214.68 363.522 1211.66 365.726C1208.92 367.731 1207.31 370.633 1206.86 374.433C1206.48 377.643 1206.85 380.89 1207.97 384.175C1208.81 386.644 1209.92 389.232 1211.32 391.941ZM645.316 425.822C648.535 405.598 647.251 390.201 641.465 379.63C635.677 369.059 625.309 363.773 610.362 363.773C593.346 363.773 579.3 369.883 568.224 382.101C557.147 394.319 549.884 411.344 546.435 433.176C542.756 453.629 544.06 468.93 550.345 479.08C556.63 489.229 567.131 494.304 581.848 494.304C598.635 494.304 612.49 488.349 623.412 476.437C634.335 464.525 641.636 447.653 645.316 425.822ZM640.748 425.096L640.754 425.054C643.799 405.891 642.684 391.489 637.407 381.849C632.497 372.88 623.482 368.396 610.362 368.396C594.713 368.396 581.809 373.999 571.651 385.204C561.192 396.741 554.31 412.972 551.005 433.897C547.523 453.252 548.615 467.501 554.278 476.647C559.659 485.337 568.849 489.682 581.848 489.682C597.279 489.682 609.997 484.226 620.003 473.314C630.302 462.081 637.217 446.009 640.748 425.096ZM1215.26 496.602L1212.29 492.774L1186.63 459.718C1183.18 462.093 1180.15 464.851 1177.55 467.992C1174.94 471.132 1173.22 475 1172.37 479.596C1171.53 486.26 1173.06 491.45 1176.97 495.166C1180.88 498.881 1186.71 500.739 1194.45 500.739C1199.68 500.739 1205.08 499.89 1210.64 498.193C1212.17 497.727 1213.71 497.196 1215.26 496.602ZM1185.79 466.183L1207.59 494.263C1203.07 495.498 1198.69 496.116 1194.45 496.116C1187.94 496.116 1183.18 494.683 1180.16 491.816C1177.4 489.197 1176.33 485.359 1176.95 480.303C1177.65 476.555 1179.04 473.435 1181.11 470.943C1182.53 469.23 1184.09 467.644 1185.79 466.183Z" fill-rule="evenodd"  fill="#5C781A" >
</path>

</svg>
