<svg xmlns="http://www.w3.org/2000/svg" xmlns:xlink="http://www.w3.org/1999/xlink" width="2192.9990234375" height="554.999755859375" viewBox="0 0 2192.9990234375 554.999755859375" fill="none">
<path     fill="#FFFFFF"  d="M416.758 3.21731L377.666 238.541L324.316 238.541L259.929 114.904L258.549 114.904L237.853 238.541L173.926 238.541L213.018 3.21731L267.288 3.21731L330.755 126.394L332.595 126.394L352.831 3.21731L416.758 3.21731Z">
</path>
<path     fill="#FFFFFF"  d="M437.454 3.21731L508.74 3.21731L538.634 98.8174L540.933 98.8174L602.561 3.21731L673.847 3.21731L560.709 164.542L548.292 238.541L484.824 238.541L497.242 164.542L437.454 3.21731Z">
</path>
<path     fill="#FFFFFF"  d="M833.895 3.21731L897.823 3.21731L872.758 153.971C868.388 180.859 852.349 200.45 852.349 200.45C836.31 220.041 811.59 230.67 811.59 230.67C786.87 241.298 756.631 241.298 756.631 241.298C726.162 241.298 705.121 230.67 705.121 230.67C684.08 220.041 674.594 200.45 674.594 200.45C665.109 180.859 669.478 153.971 669.478 153.971L694.543 3.21731L758.47 3.21731L734.325 148.456C731.796 164.772 740.649 175.458 740.649 175.458C749.502 186.144 765.829 186.144 765.829 186.144C782.386 186.144 794.803 175.458 794.803 175.458C807.221 164.772 809.75 148.456 809.75 148.456L833.895 3.21731Z">
</path>
<path     fill="#FFFFFF"  d="">
</path>
<path     fill="#FFFFFF"  d="M1148.37 80.8924C1147.57 68.8275 1140.04 62.2205 1140.04 62.2205C1132.51 55.6135 1117.56 55.6135 1117.56 55.6135C1093.3 55.6135 1076.11 72.7342 1076.11 72.7342C1058.92 89.8549 1053.86 120.419 1053.86 120.419C1048.69 151.443 1057.89 168.794 1057.89 168.794C1067.08 186.144 1091.8 186.144 1091.8 186.144C1113.42 186.144 1126.41 177.067 1126.41 177.067C1139.4 167.99 1142.16 152.592 1142.16 152.592L1099.62 152.592L1106.98 107.09L1211.38 107.09L1206.09 139.723C1200.8 171.896 1183.38 194.705 1183.38 194.705C1165.96 217.513 1140.09 229.636 1140.09 229.636C1114.22 241.758 1083.3 241.758 1083.3 241.758C1049.03 241.758 1025.46 227.165 1025.46 227.165C1001.89 212.572 991.831 185.57 991.831 185.57C981.77 158.567 987.864 121.339 987.864 121.339C992.693 92.153 1005.4 69.6318 1005.4 69.6318C1018.1 47.1106 1036.5 31.5411 1036.5 31.5411C1054.9 15.9716 1077.09 7.98582 1077.09 7.98582C1099.28 0 1123.08 0 1123.08 0C1150.9 0 1171.66 10.3988 1171.66 10.3988C1192.41 20.7976 1203.45 39.0099 1203.45 39.0099C1214.48 57.2222 1212.99 80.8924 1212.99 80.8924L1148.37 80.8924Z">
</path>
<path     fill="#FFFFFF"  d="M1322.91 3.21731L1283.82 238.541L1220.35 238.541L1259.44 3.21731L1322.91 3.21731Z">
</path>
<path     fill="#FFFFFF"  d="M1400.63 241.758C1371.89 241.758 1353.32 230.325 1353.32 230.325C1334.75 218.892 1327.28 198.382 1327.28 198.382C1319.8 177.871 1324.29 150.754 1324.29 150.754C1328.77 123.637 1343.03 103.126 1343.03 103.126C1357.29 82.6159 1379.71 71.183 1379.71 71.183C1402.13 59.7501 1430.99 59.7501 1430.99 59.7501C1459.62 59.7501 1478.18 71.183 1478.18 71.183C1496.75 82.6159 1504.28 103.126 1504.28 103.126C1511.82 123.637 1507.33 150.754 1507.33 150.754C1502.85 177.871 1488.47 198.382 1488.47 198.382C1474.1 218.892 1451.74 230.325 1451.74 230.325C1429.38 241.758 1400.63 241.758 1400.63 241.758ZM1408.45 194.877C1420.75 194.877 1429.89 182.985 1429.89 182.985C1439.03 171.092 1442.48 150.294 1442.48 150.294C1445.82 129.497 1440.7 117.604 1440.7 117.604C1435.59 105.712 1423.17 105.712 1423.17 105.712C1410.75 105.712 1401.61 117.604 1401.61 117.604C1392.47 129.497 1389.13 150.294 1389.13 150.294C1385.69 171.092 1390.8 182.985 1390.8 182.985C1395.92 194.877 1408.45 194.877 1408.45 194.877Z">
</path>
<path     fill="#FFFFFF"  d="M1517.45 238.541L1556.54 3.21731L1620.01 3.21731L1605.29 92.8424L1606.21 92.8424C1613.46 79.3986 1627.6 69.5743 1627.6 69.5743C1641.74 59.7501 1661.4 59.7501 1661.4 59.7501C1678.88 59.7501 1693.08 69.0573 1693.08 69.0573C1707.28 78.3645 1713.89 98.3578 1713.89 98.3578C1720.5 118.351 1715.21 150.294 1715.21 150.294C1710.15 180.859 1697.27 200.967 1697.27 200.967C1684.4 221.075 1666.92 230.957 1666.92 230.957C1649.44 240.839 1630.59 240.839 1630.59 240.839C1611.96 240.839 1600.98 231.934 1600.98 231.934C1590 223.029 1586.9 209.585 1586.9 209.585L1585.06 209.585L1580.46 238.541L1517.45 238.541ZM1594.25 150.294C1591.15 169.598 1596.73 180.859 1596.73 180.859C1602.3 192.119 1615.41 192.119 1615.41 192.119C1628.52 192.119 1637.66 181.031 1637.66 181.031C1646.8 169.943 1649.9 150.294 1649.9 150.294C1653.01 130.646 1647.66 119.558 1647.66 119.558C1642.31 108.469 1629.21 108.469 1629.21 108.469C1616.1 108.469 1606.73 119.558 1606.73 119.558C1597.36 130.646 1594.25 150.294 1594.25 150.294Z">
</path>
<path     fill="#FFFFFF"  d="M1775.92 241.298C1750.74 241.298 1736.71 228.659 1736.71 228.659C1722.68 216.019 1727.17 189.821 1727.17 189.821C1730.39 170.517 1740.96 158.682 1740.96 158.682C1751.54 146.847 1767.18 140.987 1767.18 140.987C1782.82 135.127 1801.21 133.748 1801.21 133.748C1823.63 132.025 1833.58 128.865 1833.58 128.865C1843.52 125.705 1844.9 118.121 1844.9 118.121L1844.9 117.662C1845.94 110.767 1841.28 107.09 1841.28 107.09C1836.63 103.414 1828.35 103.414 1828.35 103.414C1819.38 103.414 1812.88 107.32 1812.88 107.32C1806.39 111.227 1803.97 119.5 1803.97 119.5L1745.56 119.5C1749.24 103.414 1760.68 89.7974 1760.68 89.7974C1772.12 76.1813 1791.15 67.9657 1791.15 67.9657C1810.18 59.7501 1836.63 59.7501 1836.63 59.7501C1861.69 59.7501 1878.71 67.4486 1878.71 67.4486C1895.72 75.1472 1903.43 88.2462 1903.43 88.2462C1911.13 101.345 1908.37 117.662 1908.37 117.662L1888.14 238.541L1828.81 238.541L1832.95 213.721L1831.57 213.721C1821.22 228.544 1807.19 234.921 1807.19 234.921C1793.16 241.298 1775.92 241.298 1775.92 241.298ZM1803.51 201.312C1814.21 201.312 1823.92 194.705 1823.92 194.705C1833.64 188.098 1835.71 176.033 1835.71 176.033L1838.01 161.325C1832.83 163.393 1826.11 164.887 1826.11 164.887C1819.38 166.381 1811.79 167.76 1811.79 167.76C1800.41 169.483 1794.43 174.367 1794.43 174.367C1788.45 179.25 1787.42 186.144 1787.42 186.144C1786.38 193.383 1790.81 197.348 1790.81 197.348C1795.23 201.312 1803.51 201.312 1803.51 201.312Z">
</path>
<path     fill="#FFFFFF"  d="M2021.05 3.21731L1981.96 238.541L1918.49 238.541L1957.58 3.21731L2021.05 3.21731Z">
</path>
<path     fill="#FFFFFF"  d="M147.02 369.509C148.055 358.134 141.501 351.642 141.501 351.642C134.948 345.15 119.426 345.15 119.426 345.15C104.594 345.15 97.0626 350.148 97.0626 350.148C89.5316 355.146 88.1519 363.075 88.1519 363.075C84.2427 378.816 116.206 385.596 116.206 385.596L134.603 389.732C172.2 398.005 186.457 416.505 186.457 416.505C200.715 435.004 196.23 461.892 196.23 461.892C190.367 496.708 161.91 515.38 161.91 515.38C133.453 534.052 88.6118 534.052 88.6118 534.052C58.0279 534.052 36.6996 524.917 36.6996 524.917C15.3713 515.782 5.88569 496.88 5.88569 496.88C-3.59993 477.979 1.22911 448.563 1.22911 448.563L61.9371 448.563C59.8675 464.765 69.0082 473.21 69.0082 473.21C78.1489 481.655 96.4303 481.655 96.4303 481.655C111.952 481.655 120.748 476.083 120.748 476.083C129.544 470.51 130.923 461.892 130.923 461.892C132.303 453.964 125.232 448.506 125.232 448.506C118.161 443.048 99.1897 438.911 99.1897 438.911L76.6542 433.855C46.6451 426.961 31.3531 411.104 31.3531 411.104C16.0612 395.248 20.5453 367.671 20.5453 367.671C24.2246 345.15 39.1141 328.316 39.1141 328.316C54.0037 311.483 77.0566 302.118 77.0566 302.118C100.11 292.753 128.164 292.753 128.164 292.753C156.678 292.753 175.937 302.29 175.937 302.29C195.196 311.827 203.647 329.063 203.647 329.063C212.097 346.299 208.188 369.509 208.188 369.509L147.02 369.509Z">
</path>
<path     fill="#FFFFFF"  d="M209.108 531.294L248.2 295.971L312.128 295.971L296.951 387.894L381.574 387.894L396.751 295.971L460.678 295.971L421.586 531.294L357.659 531.294L372.836 439.371L288.212 439.371L273.035 531.294L209.108 531.294Z">
</path>
<path     fill="#FFFFFF"  d="M698.911 417.769C692.472 456.147 673.386 482.115 673.386 482.115C654.3 508.083 627.05 521.297 627.05 521.297C599.801 534.511 568.757 534.511 568.757 534.511C535.643 534.511 511.268 520.148 511.268 520.148C486.893 505.785 475.74 478.093 475.74 478.093C464.587 450.402 471.256 410.415 471.256 410.415C477.465 372.037 496.551 345.839 496.551 345.839C515.637 319.641 543.117 306.197 543.117 306.197C570.596 292.753 601.87 292.753 601.87 292.753C634.754 292.753 659.071 307.231 659.071 307.231C683.389 321.709 694.484 349.631 694.484 349.631C705.58 377.552 698.911 417.769 698.911 417.769ZM634.524 410.415C639.353 380.08 630.672 364.224 630.672 364.224C621.991 348.367 599.571 348.367 599.571 348.367C574.046 348.367 557.431 366.694 557.431 366.694C540.817 385.021 535.643 417.769 535.643 417.769C530.124 448.448 539.552 463.673 539.552 463.673C548.981 478.898 571.056 478.898 571.056 478.898C596.236 478.898 612.62 461.03 612.62 461.03C629.005 443.163 634.524 410.415 634.524 410.415Z">
</path>
<path     fill="#FFFFFF"  d="M744.608 531.294L714.254 295.971L785.54 295.971L793.819 440.75L795.658 440.75L857.746 295.971L913.855 295.971L928.112 441.209L929.952 441.209L986.06 295.971L1057.35 295.971L948.808 531.294L887.64 531.294L869.704 399.844L867.864 399.844L805.776 531.294L744.608 531.294Z">
</path>
<path     fill="#FFFFFF"  d="">
</path>
<path     fill="#FFFFFF"  d="M1170.78 534.971C1145.48 534.971 1128.81 526.008 1128.81 526.008C1112.14 517.046 1104.84 501.993 1104.84 501.993C1097.54 486.941 1100.41 468.786 1100.41 468.786C1103.63 448.793 1116.97 435.579 1116.97 435.579C1130.31 422.365 1150.54 409.955 1150.54 409.955L1150.89 409.726C1144.91 399.269 1141.35 386.055 1141.35 386.055C1137.78 372.841 1140.43 357.559 1140.43 357.559C1143.53 339.634 1154.57 324.812 1154.57 324.812C1165.61 309.989 1182.51 301.141 1182.51 301.141C1199.41 292.294 1219.99 292.294 1219.99 292.294C1239.88 292.294 1252.93 300.452 1252.93 300.452C1265.98 308.61 1271.56 322.169 1271.56 322.169C1277.13 335.727 1274.26 352.044 1274.26 352.044C1271.61 368.59 1261.21 382.781 1261.21 382.781C1250.8 396.971 1233.79 407.657 1233.79 407.657L1220.91 415.701L1245.63 448.908C1251.95 440.29 1256.44 430.121 1256.44 430.121C1260.92 419.952 1262.76 408.577 1262.76 408.577L1312.89 408.577C1309.33 431.672 1300.42 452.815 1300.42 452.815C1291.51 473.957 1276.44 490.273 1276.44 490.273L1306.91 531.294L1243.45 531.294L1233.44 518.425C1233.33 518.425 1233.33 518.425 1233.33 518.425C1217.92 527.387 1201.82 531.179 1201.82 531.179C1185.73 534.971 1170.78 534.971 1170.78 534.971ZM1204.47 481.196L1175.84 444.312C1170.66 447.874 1166.76 452.585 1166.76 452.585C1162.85 457.296 1161.58 464.19 1161.58 464.19C1160.32 474.187 1166.18 479.76 1166.18 479.76C1172.04 485.332 1183.66 485.332 1183.66 485.332C1193.66 485.332 1204.47 481.196 1204.47 481.196ZM1198.72 382.838L1209.41 376.863C1218.27 371.807 1221.94 366.292 1221.94 366.292C1225.62 360.776 1226.43 356.64 1226.43 356.64C1227.58 351.125 1224.19 346.758 1224.19 346.758C1220.79 342.392 1211.71 342.392 1211.71 342.392C1203.89 342.392 1198.14 346.586 1198.14 346.586C1192.4 350.78 1191.48 358.478 1191.48 358.478C1190.79 364.339 1192.8 370.256 1192.8 370.256C1194.81 376.174 1198.72 382.838 1198.72 382.838Z">
</path>
<path     fill="#FFFFFF"  d="">
</path>
<path     fill="#FFFFFF"  d="M1424.32 347.448L1433.06 295.971L1637.72 295.971L1628.98 347.448L1558.15 347.448L1527.8 531.294L1464.79 531.294L1495.14 347.448L1424.32 347.448Z">
</path>
<path     fill="#FFFFFF"  d="M1622.54 531.294L1661.63 295.971L1831.34 295.971L1822.6 347.448L1716.82 347.448L1710.38 387.894L1807.42 387.894L1798.68 439.371L1701.64 439.371L1695.21 479.817L1800.52 479.817L1791.79 531.294L1622.54 531.294Z">
</path>
<path     fill="#FFFFFF"  d="M1823.98 531.294L1863.07 295.971L1927 295.971L1896.65 479.817L1991.85 479.817L1983.11 531.294L1823.98 531.294Z">
</path>
<path     fill="#FFFFFF"  d="M2008.86 531.294L2047.96 295.971L2111.88 295.971L2081.53 479.817L2176.73 479.817L2167.99 531.294L2008.86 531.294Z">
</path>
</svg>
