<svg xmlns="http://www.w3.org/2000/svg" xmlns:xlink="http://www.w3.org/1999/xlink" width="1569" height="207" viewBox="0 0 1569 207" fill="none">
<g >
<path fill-rule="evenodd"  fill="rgba(89, 120, 24, 1)" style="mix-blend-mode:normal" d="M180.874,185.884c-14.44,7.00733 -29.88,10.511 -46.32,10.511c-17.59133,0 -32.89563,-3.83767 -45.9129,-11.513c-13.13307,-7.744 -22.69703,-19.063 -28.6919,-33.957c-5.9508,-14.78533 -7.16363,-32.75333 -3.6385,-53.904c3.27073,-20.23007 9.9591,-37.28543 20.0651,-51.1661c10.1168,-13.89527 22.47053,-24.41433 37.0612,-31.5572c14.562,-7.1284 30.12367,-10.6926 46.685,-10.6926c17.478,0 32.71233,3.8696 45.703,11.6088c13.102,7.8054 22.634,19.21517 28.596,34.2293c5.91667,14.89873 7.11333,32.97967 3.59,54.2428l-0.001,0.006c-3.39333,20.238 -10.14333,37.23667 -20.25,50.996c-10.118,13.77467 -22.41333,24.17333 -36.886,31.196zM941.5,77.0394c0.59,-7.56473 -0.87,-13.5701 -4.38,-18.0161c-3.39467,-4.2996 -9.10533,-6.4494 -17.132,-6.4494c-12.13867,0 -22.246,4.4238 -30.322,13.2714c-8.27333,9.06427 -13.752,21.56217 -16.436,37.4937c-2.42667,15.23933 -1.44767,26.48133 2.937,33.726c4.18067,6.90733 11.33,10.361 21.448,10.361c9.26467,0 16.98533,-2.118 23.162,-6.354c6.134,-4.20733 10.36733,-9.81 12.7,-16.808l0.684,-2.051h55.706l-0.915,3.717c-1.96667,7.99067 -5.45567,16.12633 -10.467,24.407c-5.01467,8.286 -11.48633,15.89 -19.415,22.812c-7.952,6.94333 -17.29533,12.54967 -28.03,16.819c-10.77333,4.28467 -22.86167,6.427 -36.265,6.427c-17.60333,0 -32.81367,-3.873 -45.631,-11.619c-12.92467,-7.81067 -22.277,-19.196 -28.057,-34.156c-5.72933,-14.828 -6.89367,-32.80717 -3.493,-53.9375c3.39333,-20.36233 10.11167,-37.45217 20.155,-51.2695c10.05867,-13.83847 22.29633,-24.2702 36.713,-31.2952c14.38267,-7.00847 29.67633,-10.5127 45.881,-10.5127c16.31933,0 30.38167,2.8517 42.187,8.5551c11.97,5.78273 20.994,14.2224 27.072,25.319c6.05733,11.058 8.47067,24.401 7.24,40.029l-0.218,2.7645h-55.377zM351.884,6.0909c14.02933,0 25.89267,2.79717 35.59,8.3915c9.81867,5.66467 16.87067,13.6328 21.156,23.9044c4.24533,10.177 5.256,21.99983 3.032,35.4685c-2.21133,13.63253 -7.12567,25.39877 -14.743,35.2987c-7.61333,9.89467 -17.28467,17.50467 -29.014,22.83c-11.66867,5.29867 -24.70333,7.948 -39.104,7.948h-24.627l-9.056,53.977h-55.438l0.579,-3.491l30.601,-184.3271zM301.635,136.932h27.166c13.968,0 26.58933,-2.56 37.864,-7.68c11.27467,-5.11933 20.567,-12.42867 27.877,-21.928c7.30933,-9.49913 12.02933,-20.8183 14.16,-33.9575c2.13067,-12.90247 1.18367,-24.17733 -2.841,-33.8246c-4.02467,-9.64727 -10.65367,-17.13423 -19.887,-22.4609c-9.23267,-5.32673 -20.596,-7.9901 -34.09,-7.9901h-78.481l-30.184,181.8181h49.361zM572.055,6.0909l-7.765,45.7727h-81.65l-4.017,25.25h74.966l-7.765,45.7724h-74.903l-4.017,25.25h81.358l-7.765,45.773h-136.755l0.58,-3.491l30.601,-184.3271zM480.08,48.8636h81.676l6.238,-36.7727l0.509,-3h-131.037l-30.185,181.8181h130.682l6.238,-36.773l0.509,-3h-81.321l0.477,-3l4.495,-28.25h74.929l6.238,-36.7724l0.509,-3h-74.929l0.477,-3zM677.123,193.909l-47.223,-90.734l-15.178,90.734h-55.44l31.181,-187.8181h46.276l46.763,90.8165l14.911,-90.8165h55.447l-0.58,3.49132l-30.601,184.32678zM685.808,101.384l-0.342,2.078l-0.131,0.799h-1.42l-0.131,-0.254l-1.097,-2.131l-47.778,-92.7851h-41.903l-29.687,178.8181l-0.498,3h49.361l15.416,-92.1569l0.462,-2.7613l0.102,-0.6073h1.065l0.102,0.1952l1.394,2.6785l48.22,92.6518h41.193l29.687,-178.8181l0.498,-3h-49.361zM1079.88,6.0909h71.88l30.82,187.8181h-59.43l-4.7,-34.801h-55.4l-16.33,34.801h-60.014zM1121.07,156.108l4.71,34.801h53.26l-0.49,-3l-29.34,-178.8181h-67.47l-88.709,178.8181l-1.488,3h53.267l16.34,-34.801zM1279.52,6.0909l-23.43,142.0451h73.52l-7.76,45.773h-128.95l0.58,-3.491l30.61,-184.3271zM1255.59,151.136h-3.04l0.5,-3l22.44,-136.0451l0.5,-3h-49.36l-29.69,178.8181l-0.5,3h122.87l6.24,-36.773l0.51,-3zM1422.28,6.0909l-23.44,142.0451h73.53l-7.77,45.773h-128.94l0.58,-3.491l30.6,-184.3271zM1398.35,151.136h-3.04l0.49,-3l22.45,-136.0451l0.49,-3h-49.36l-29.68,178.8181l-0.5,3h122.87l6.24,-36.773l0.51,-3zM215.342,152.912c9.82533,-13.376 16.395,-29.948 19.709,-49.716c3.43267,-20.71493 2.29333,-38.26347 -3.418,-52.6456c-5.71133,-14.38207 -14.826,-25.3018 -27.344,-32.7592c-12.51733,-7.4574 -27.23967,-11.1861 -44.167,-11.1861c-16.09867,0 -31.22067,3.46237 -45.366,10.3871c-14.14507,6.92473 -26.13003,17.13423 -35.9549,30.6285c-9.8248,13.49433 -16.3352,30.1255 -19.5312,49.8935c-3.4328,20.59653 -2.2787,38.0268 3.4623,52.2908c5.74107,14.26333 14.88527,25.09433 27.4326,32.493c12.54747,7.398 27.34387,11.097 44.3892,11.097c15.98,0 30.98367,-3.40333 45.011,-10.21c14.02667,-6.806 25.95233,-16.897 35.777,-30.273zM947.499,77.2727h46.352c1.184,-15.03313 -1.10933,-27.81723 -6.88,-38.3523c-5.77067,-10.535 -14.35267,-18.55463 -25.746,-24.0589c-11.39333,-5.50427 -25.02067,-8.2564 -40.882,-8.2564c-15.74333,0 -30.599,3.40317 -44.567,10.2095c-13.968,6.80633 -25.83467,16.92707 -35.6,30.3622c-9.766,13.43513 -16.306,30.0959 -19.62,49.9823c-3.31467,20.5966 -2.205,38.05623 3.329,52.3789c5.534,14.32333 14.471,25.21367 26.811,32.671c12.34,7.45733 27.033,11.186 44.079,11.186c13.02067,0 24.73933,-2.07167 35.156,-6.215c10.41667,-4.14267 19.472,-9.57267 27.166,-16.29c7.694,-6.718 13.96767,-14.08667 18.821,-22.106c4.224,-6.98067 7.32733,-13.83767 9.31,-20.571c0.29533,-1.00267 0.56567,-2.00267 0.811,-3h-49.716c-2.54533,7.63467 -7.162,13.74567 -13.85,18.333c-6.68733,4.58667 -14.97333,6.88 -24.858,6.88c-11.24467,0 -19.24933,-3.93567 -24.014,-11.807c-4.76467,-7.872 -5.87433,-19.798 -3.329,-35.778c2.78133,-16.51287 8.50733,-29.51893 17.178,-39.0182c8.67067,-9.49927 19.51667,-14.2489 32.538,-14.2489c8.996,0 15.49167,2.53017 19.487,7.5905c3.504,4.439 5.22067,10.14177 5.15,17.1083c-0.01,0.97513 -0.055,1.97513 -0.135,3zM308.027,98.5795l0.5,-3l7.845,-47.071h17.401c8.7,0 15.092,2.18987 19.176,6.5696c4.084,4.37973 5.50433,10.47587 4.261,18.2884c-1.24267,7.81247 -4.66067,13.96777 -10.254,18.4659c-5.59267,4.49807 -12.828,6.7471 -21.706,6.7471h-14.182zM311.568,95.5795h13.682c8.17333,0 14.782,-2.0283 19.826,-6.0849c4.99267,-4.01507 8.04967,-9.54823 9.171,-16.5995c1.09,-6.84833 -0.074,-12.10537 -3.492,-15.7711c-3.49067,-3.74367 -9.15133,-5.6155 -16.982,-5.6155h-14.859zM182.361,61.8253c4.46867,8.1676 5.46,20.0639 2.974,35.6889c-2.84067,16.86787 -8.478,29.90347 -16.912,39.1068c-8.434,9.20333 -19.13167,13.805 -32.093,13.805c-11.364,0 -19.47267,-3.921 -24.326,-11.763c-4.85333,-7.842 -5.85933,-19.66433 -3.018,-35.467c2.66333,-16.86787 8.271,-30.02187 16.823,-39.462c8.55267,-9.44007 19.39867,-14.1601 32.538,-14.1601c11.54067,0 19.54533,4.0838 24.014,12.2514zM158.347,52.5739c-12.25267,0 -22.35733,4.39143 -30.314,13.1743c-8.152,8.9982 -13.51333,21.6368 -16.084,37.9158c-2.712,15.09 -1.84333,26.23 2.606,33.42c4.26733,6.89467 11.52567,10.342 21.775,10.342c12.08133,0 22.04167,-4.27733 29.881,-12.832c8.03,-8.76267 13.417,-21.27973 16.161,-37.5512c0.00133,-0.0048 0.00233,-0.00957 0.003,-0.0143c0.00067,-0.0042 0.00133,-0.0084 0.002,-0.0126c2.37267,-14.9368 1.49,-26.18703 -2.648,-33.7507c-3.89933,-7.12753 -11.02667,-10.6913 -21.382,-10.6913zM1081.77,119.176h-3.31l1.4,-3l25.49,-54.3521l1.15,-2.4579l0.1,-0.2041h1.42l0.1,0.711l0.32,2.4256l7.26,53.8775l0.4,3zM1112.67,116.176l-6.58,-48.8622l-22.91,48.8622z">
</path>
</g>
</svg>
