<svg xmlns="http://www.w3.org/2000/svg" xmlns:xlink="http://www.w3.org/1999/xlink" width="1529" height="211" viewBox="0 0 1529 211" fill="none">
<g >
<path    style="mix-blend-mode:normal" fill="#EAEA24"  d="M248.051 114.196Q243.08 143.848 228.342 163.912Q213.605 183.976 192.565 194.185Q171.524 204.395 147.554 204.395Q121.986 204.395 103.165 193.298Q84.3438 182.2 75.7322 160.805Q67.1207 139.409 72.2699 108.514Q77.0639 78.8622 91.8011 58.6207Q106.538 38.3793 127.756 27.9922Q148.974 17.6051 173.122 17.6051Q198.513 17.6051 217.289 28.7912Q236.066 39.9773 244.633 61.5504Q253.2 83.1236 248.051 114.196ZM198.335 108.514Q202.064 85.0767 195.361 72.8253Q188.658 60.5739 171.347 60.5739Q151.638 60.5739 138.809 74.734Q125.981 88.8942 121.986 114.196Q117.724 137.9 125.004 149.663Q132.284 161.426 149.33 161.426Q168.772 161.426 181.423 147.621Q194.074 133.816 198.335 108.514ZM256.219 201.909L286.403 20.0909L364.884 20.0909Q385.125 20.0909 398.974 28.081Q412.824 36.071 418.861 50.5419Q424.898 65.0128 421.702 84.3665Q418.506 104.075 407.542 118.324Q396.577 132.573 379.665 140.252Q362.753 147.932 341.801 147.932L314.635 147.932L305.58 201.909L256.219 201.909ZM321.027 109.58L338.25 109.58Q351.567 109.58 359.956 102.832Q368.346 96.0852 370.21 84.3665Q372.075 72.6477 365.949 66.0781Q359.823 59.5085 346.773 59.5085L329.372 59.5085L321.027 109.58ZM420.281 201.909L450.466 20.0909L581.503 20.0909L574.756 59.8636L493.08 59.8636L488.108 91.1136L563.037 91.1136L556.29 130.886L481.361 130.886L476.389 162.136L557.71 162.136L550.963 201.909L420.281 201.909ZM763.321 20.0909L733.136 201.909L691.943 201.909L642.227 106.384L641.162 106.384L625.182 201.909L575.821 201.909L606.006 20.0909L647.909 20.0909L696.915 115.261L698.335 115.261L713.96 20.0909L763.321 20.0909ZM1006.85 88.2727L957.49 88.2727Q958.467 75.755 952.475 68.1644Q946.482 60.5739 932.988 60.5739Q913.456 60.5739 900.45 74.8228Q887.444 89.0717 883.272 113.841Q879.454 137.811 886.601 149.619Q893.748 161.426 910.615 161.426Q925.442 161.426 935.473 154.546Q945.505 147.665 949.323 136.213L999.039 136.213Q996.198 147.754 988.918 159.784Q981.638 171.813 970.097 181.89Q958.556 191.966 942.931 198.18Q927.306 204.395 907.775 204.395Q882.206 204.395 863.696 193.209Q845.186 182.023 836.885 160.538Q828.584 139.054 833.556 108.159Q838.527 78.3295 853.176 58.1768Q867.824 38.0241 888.776 27.8146Q909.728 17.6051 933.343 17.6051Q957.135 17.6051 974.225 25.8615Q991.315 34.1179 999.971 49.9204Q1008.63 65.723 1006.85 88.2727ZM1057.81 201.909L1004.54 201.909L1094.74 20.0909L1162.21 20.0909L1192.04 201.909L1138.78 201.909L1134.07 167.108L1074.15 167.108L1057.81 201.909ZM1091.46 130.176L1129.1 130.176L1121.02 70.1619L1119.6 70.1619L1091.46 130.176ZM1209.44 201.909L1239.63 20.0909L1288.99 20.0909L1265.55 162.136L1339.06 162.136L1332.31 201.909L1209.44 201.909ZM1352.2 201.909L1382.38 20.0909L1431.74 20.0909L1408.31 162.136L1481.82 162.136L1475.07 201.909L1352.2 201.909Z">
</path>
</g>
</svg>
